<?xml version="1.0" encoding="UTF-8"?>
<svg width="52px" height="17px" viewBox="0 0 52 17" version="1.1" xmlns="http://www.w3.org/2000/svg" xmlns:xlink="http://www.w3.org/1999/xlink">
    <title>编组 6</title>
    <defs>
        <filter id="filter-1">
            <feColorMatrix in="SourceGraphic" type="matrix" values="0 0 0 0 1.000000 0 0 0 0 1.000000 0 0 0 0 1.000000 0 0 0 1.000000 0"></feColorMatrix>
        </filter>
    </defs>
    <g id="页面-1" stroke="none" stroke-width="1" fill="none" fill-rule="evenodd">
        <g id="手机备份-2" transform="translate(-180.000000, -125.000000)">
            <g id="编组-2" transform="translate(181.000000, 126.000000)">
                <g id="编组-6" transform="translate(0.000000, 0.500000)">
                    <rect id="矩形" stroke="#FFFFFF" stroke-width="0.5" x="0" y="0" width="50" height="14" rx="4"></rect>
                    <path d="M15.625,8.8 L15.95,7.905 L17.445,7.905 L17.77,8.8 L18.395,8.8 L17.03,5.23 L16.365,5.23 L15,8.8 L15.625,8.8 Z M17.27,7.425 L16.125,7.425 L16.69,5.86 L16.71,5.86 L17.27,7.425 Z M19.2480315,8.8 L19.2480315,7.245 C19.2680315,7.04 19.3380315,6.88 19.4580315,6.77 C19.5630315,6.67 19.6880315,6.62 19.8280315,6.62 C20.2180315,6.62 20.4130315,6.83 20.4130315,7.255 L20.4130315,8.8 L20.9830315,8.8 L20.9830315,7.205 C20.9830315,6.495 20.6580315,6.145 20.0130315,6.145 C19.8580315,6.145 19.7180315,6.175 19.5880315,6.24 C19.4630315,6.3 19.3480315,6.395 19.2480315,6.515 L19.2480315,6.215 L18.6780315,6.215 L18.6780315,8.8 L19.2480315,8.8 Z M22.6660631,8.87 C23.0060631,8.87 23.2660631,8.755 23.4460631,8.525 L23.4460631,8.8 L23.9760631,8.8 L23.9760631,5.16 L23.4060631,5.16 L23.4060631,6.57 C23.1910631,6.285 22.9360631,6.145 22.6360631,6.145 C22.2660631,6.145 21.9710631,6.28 21.7610631,6.55 C21.5610631,6.8 21.4660631,7.115 21.4660631,7.495 C21.4660631,7.89 21.5660631,8.215 21.7660631,8.465 C21.9810631,8.735 22.2810631,8.87 22.6660631,8.87 Z M22.7510631,8.41 C22.4960631,8.41 22.3110631,8.32 22.1960631,8.14 C22.0960631,7.99 22.0510631,7.775 22.0510631,7.495 C22.0510631,7.215 22.1010631,7.005 22.2060631,6.86 C22.3260631,6.69 22.5110631,6.605 22.7710631,6.605 C22.9510631,6.605 23.1060631,6.68 23.2260631,6.83 C23.3560631,6.99 23.4260631,7.21 23.4260631,7.485 L23.4260631,7.525 C23.4260631,7.775 23.3710631,7.985 23.2660631,8.145 C23.1460631,8.32 22.9710631,8.41 22.7510631,8.41 Z M25.1240946,8.8 L25.1240946,7.43 C25.1240946,7.21 25.1890946,7.035 25.3290946,6.9 C25.4490946,6.78 25.5840946,6.725 25.7340946,6.725 C25.8540946,6.725 25.9740946,6.74 26.1040946,6.78 L26.1040946,6.21 C26.0140946,6.165 25.9040946,6.145 25.7790946,6.145 C25.6190946,6.145 25.4840946,6.19 25.3690946,6.285 C25.2740946,6.355 25.1940946,6.455 25.1240946,6.585 L25.1240946,6.215 L24.5590946,6.215 L24.5590946,8.8 L25.1240946,8.8 Z M27.6121262,8.87 C28.0021262,8.87 28.3221262,8.74 28.5621262,8.48 C28.7921262,8.23 28.9121262,7.905 28.9121262,7.51 C28.9121262,7.11 28.7921262,6.785 28.5571262,6.53 C28.3171262,6.27 28.0021262,6.145 27.6121262,6.145 C27.2171262,6.145 26.9021262,6.27 26.6671262,6.53 C26.4271262,6.785 26.3121262,7.11 26.3121262,7.51 C26.3121262,7.905 26.4271262,8.23 26.6621262,8.48 C26.9021262,8.74 27.2171262,8.87 27.6121262,8.87 Z M27.6121262,8.405 C27.3721262,8.405 27.1921262,8.31 27.0621262,8.125 C26.9521262,7.965 26.8971262,7.76 26.8971262,7.51 C26.8971262,7.26 26.9521262,7.05 27.0621262,6.89 C27.1921262,6.7 27.3721262,6.61 27.6121262,6.61 C27.8471262,6.61 28.0321262,6.7 28.1621262,6.89 C28.2721262,7.05 28.3321262,7.26 28.3321262,7.51 C28.3321262,7.755 28.2721262,7.96 28.1621262,8.125 C28.0321262,8.31 27.8471262,8.405 27.6121262,8.405 Z M29.7801577,5.915 C29.8901577,5.915 29.9801577,5.88 30.0551577,5.81 C30.1301577,5.74 30.1701577,5.645 30.1701577,5.535 C30.1701577,5.425 30.1301577,5.335 30.0601577,5.265 C29.9851577,5.195 29.8901577,5.16 29.7801577,5.16 C29.6701577,5.16 29.5801577,5.195 29.5051577,5.265 C29.4301577,5.335 29.3951577,5.425 29.3951577,5.535 C29.3951577,5.645 29.4301577,5.735 29.5051577,5.81 C29.5801577,5.88 29.6701577,5.915 29.7801577,5.915 Z M30.0651577,8.8 L30.0651577,6.215 L29.4951577,6.215 L29.4951577,8.8 L30.0651577,8.8 Z M31.8531892,8.87 C32.1931892,8.87 32.4531892,8.755 32.6331892,8.525 L32.6331892,8.8 L33.1631892,8.8 L33.1631892,5.16 L32.5931892,5.16 L32.5931892,6.57 C32.3781892,6.285 32.1231892,6.145 31.8231892,6.145 C31.4531892,6.145 31.1581892,6.28 30.9481892,6.55 C30.7481892,6.8 30.6531892,7.115 30.6531892,7.495 C30.6531892,7.89 30.7531892,8.215 30.9531892,8.465 C31.1681892,8.735 31.4681892,8.87 31.8531892,8.87 Z M31.9381892,8.41 C31.6831892,8.41 31.4981892,8.32 31.3831892,8.14 C31.2831892,7.99 31.2381892,7.775 31.2381892,7.495 C31.2381892,7.215 31.2881892,7.005 31.3931892,6.86 C31.5131892,6.69 31.6981892,6.605 31.9581892,6.605 C32.1381892,6.605 32.2931892,6.68 32.4131892,6.83 C32.5431892,6.99 32.6131892,7.21 32.6131892,7.485 L32.6131892,7.525 C32.6131892,7.775 32.5581892,7.985 32.4531892,8.145 C32.3331892,8.32 32.1581892,8.41 31.9381892,8.41 Z M37.7242523,9.32 L37.7242523,6.59 C38.1342523,6.8 38.6442523,7.105 39.2592523,7.495 L39.5742523,7.025 C38.9492523,6.655 38.3342523,6.32 37.7242523,6.03 L37.7242523,5.42 L39.8342523,5.42 L39.8342523,4.91 L35.3492523,4.91 L35.3492523,5.42 L37.1992523,5.42 L37.1992523,9.32 L37.7242523,9.32 Z M42.8622838,9.325 C43.1672838,9.16 43.4422838,8.93 43.6822838,8.63 C43.7122838,8.695 43.7522838,8.755 43.7922838,8.815 C44.0022838,9.115 44.2022838,9.265 44.3872838,9.265 C44.6172838,9.265 44.7872838,8.93 44.9072838,8.265 L44.4672838,8.025 C44.4172838,8.495 44.3672838,8.73 44.3222838,8.73 C44.2622838,8.73 44.1772838,8.615 44.0622838,8.39 C44.0322838,8.335 44.0072838,8.27 43.9772838,8.195 C44.2172838,7.78 44.4172838,7.27 44.5722838,6.665 L44.1072838,6.455 C44.0172838,6.835 43.9072838,7.175 43.7722838,7.485 L43.7322838,7.29 C43.6822838,7.04 43.6422838,6.715 43.6172838,6.31 L44.7922838,6.31 L44.7922838,5.835 L43.5872838,5.835 C43.5672838,5.495 43.5572838,5.105 43.5572838,4.675 L43.0522838,4.675 C43.0522838,5.09 43.0622838,5.475 43.0822838,5.835 L42.0422838,5.835 L42.0422838,5.515 L42.8872838,5.515 L42.8872838,5.045 L42.0422838,5.045 L42.0422838,4.68 L41.5322838,4.68 L41.5322838,5.045 L40.6172838,5.045 L40.6172838,5.515 L41.5322838,5.515 L41.5322838,5.835 L40.3572838,5.835 L40.3572838,6.31 L43.1122838,6.31 C43.1472838,6.735 43.2022838,7.1 43.2722838,7.41 C43.3222838,7.655 43.3822838,7.88 43.4522838,8.08 C43.2122838,8.44 42.9172838,8.715 42.5772838,8.905 L42.8622838,9.325 Z M44.2622838,5.725 L44.6472838,5.455 C44.5122838,5.245 44.3172838,5 44.0672838,4.72 L43.6722838,4.97 C43.9222838,5.25 44.1172838,5.5 44.2622838,5.725 Z M42.1672838,9.305 L42.1672838,8.755 C42.4172838,8.725 42.6572838,8.695 42.8872838,8.665 L42.8872838,8.215 C42.6622838,8.245 42.4222838,8.27 42.1672838,8.295 L42.1672838,8.01 L42.8622838,8.01 L42.8622838,7.575 L42.1672838,7.575 L42.1672838,7.275 L41.6572838,7.275 L41.6572838,7.575 L41.2322838,7.575 C41.3222838,7.43 41.4122838,7.27 41.4972838,7.1 L42.9122838,7.1 L42.9122838,6.64 L41.6872838,6.64 C41.7122838,6.57 41.7372838,6.495 41.7672838,6.42 L41.2722838,6.325 C41.2372838,6.43 41.2022838,6.535 41.1622838,6.64 L40.5072838,6.64 L40.5072838,7.1 L40.9672838,7.1 C40.8672838,7.295 40.7572838,7.46 40.6472838,7.595 L40.7522838,8.01 L41.6572838,8.01 L41.6572838,8.34 C41.3072838,8.37 40.9322838,8.395 40.5372838,8.415 L40.5972838,8.895 C40.9622838,8.865 41.3172838,8.835 41.6572838,8.805 L41.6572838,9.305 L42.1672838,9.305 Z" id="Android下载" fill="#FFFFFF" fill-rule="nonzero"></path>
                    <g filter="url(#filter-1)" id="android">
                        <g transform="translate(4.000000, 2.500000)">
                            <rect id="矩形" fill="#000000" fill-rule="nonzero" opacity="0" x="0" y="0" width="8" height="8"></rect>
                            <path d="M3.17862626,2.51502173 C3.26992349,2.50995831 3.34127685,2.43686061 3.34127685,2.34839491 C3.34127685,2.2599292 3.26992349,2.18683151 3.17862626,2.18176808 C3.08585858,2.18176808 3.01062626,2.25865172 3.01062626,2.34839491 C3.01062626,2.43813809 3.08585859,2.51502173 3.17862626,2.51502173 L3.17862626,2.51502173 Z M5.04359596,2.51502173 C5.13636364,2.51502173 5.21159596,2.43813809 5.21159596,2.34839491 C5.21159596,2.25865172 5.13636364,2.18176808 5.04359596,2.18176808 C4.95229872,2.18683151 4.88094537,2.2599292 4.88094537,2.34839491 C4.88094537,2.43686061 4.95229872,2.50995831 5.04359596,2.51502173 L5.04359596,2.51502173 Z M1.45507071,3.30164262 C1.70366984,3.3025428 1.90496848,3.49727852 1.90589899,3.7377726 L1.90589899,5.57613981 C1.90589899,5.81992388 1.70707071,6.0163739 1.45507071,6.0163739 C1.20307071,6.0163739 1,5.81965028 1,5.57613981 L1,3.7377726 C1,3.49836624 1.20335353,3.30164262 1.45507071,3.30164262 L1.45507071,3.30164262 Z M6.13955555,3.38290398 L6.13955555,6.23006117 C6.13955555,6.49080889 5.92290909,6.70039206 5.65789899,6.70039205 L5.32642424,6.70039205 L5.32642424,7.67087702 C5.32642424,7.91466109 5.12307071,8.11111111 4.87135353,8.11111111 C4.61963636,8.11111111 4.41628282,7.91438749 4.41628283,7.67087702 L4.41628283,6.70039205 L3.80650505,6.70039205 L3.80650505,7.67087702 C3.80650505,7.91466109 3.60315152,8.11111111 3.35143434,8.11111111 C3.10143937,8.10960451 2.8998219,7.91272494 2.90060606,7.67087702 L2.89608081,6.70039205 L2.56913131,6.70039205 C2.44007266,6.7007568 2.31619123,6.65132136 2.22493259,6.56303802 C2.13367396,6.47475468 2.08257246,6.35491214 2.08294742,6.23006117 L2.08294742,3.38290398 L6.13983838,3.38290398 L6.13955555,3.38290398 Z M5.11430302,1.65151721 C5.73313131,1.95932538 6.15284848,2.54922264 6.15284848,3.22913669 L2.06513131,3.22913669 C2.06513131,2.54949625 2.48484848,1.95932538 3.10791919,1.65151721 L2.79426263,1.09144314 C2.78544177,1.07725836 2.78281046,1.06026356 2.78694815,1.04420111 C2.79108583,1.02813865 2.80165319,1.01432574 2.81632323,1.00580406 C2.84715151,0.992944522 2.8870303,1.00142634 2.90484848,1.03152315 L3.22303031,1.59597494 C3.49256566,1.48051267 3.79321212,1.41648857 4.11139394,1.41648857 C4.42957576,1.41648857 4.73022222,1.48051267 4.99975757,1.59597494 L5.31793939,1.03152315 C5.33575757,1.00169996 5.37535353,0.992944529 5.40646464,1.00580406 C5.42113468,1.01432574 5.43170205,1.02813865 5.43583973,1.0442011 C5.43997742,1.06026356 5.43734611,1.07725836 5.42852525,1.09144314 L5.11430302,1.65151721 Z M7.22222222,3.7377726 L7.22222222,5.57613981 C7.22222222,5.81992388 7.01886869,6.0163739 6.76715151,6.0163739 C6.51715654,6.0148673 6.31553907,5.81798773 6.31632095,5.57613981 L6.31632095,3.7377726 C6.31602182,3.6220146 6.36342287,3.51091373 6.448035,3.4290602 C6.53264712,3.34720668 6.64749227,3.30135104 6.76715151,3.30164124 C7.01915151,3.30164124 7.22222222,3.49398853 7.22222222,3.7377726 Z" id="形状" fill="#75CC53" fill-rule="nonzero"></path>
                        </g>
                    </g>
                </g>
            </g>
        </g>
    </g>
</svg>