<?xml version="1.0" encoding="UTF-8"?>
<svg width="58px" height="16px" viewBox="0 0 58 16" version="1.1" xmlns="http://www.w3.org/2000/svg" xmlns:xlink="http://www.w3.org/1999/xlink">
    <title>and</title>
    <g id="页面-1" stroke="none" stroke-width="1" fill="none" fill-rule="evenodd">
        <g id="手机备份-2" transform="translate(-242.000000, -119.000000)">
            <g id="编组-2" transform="translate(182.000000, 120.000000)">
                <g id="and" transform="translate(61.000000, 0.000000)">
                    <rect id="矩形备份-8" stroke="#FFFFFF" stroke-width="0.5" x="0" y="0" width="56" height="14" rx="4"></rect>
                    <path d="M15.625,8.8 L15.95,7.905 L17.445,7.905 L17.77,8.8 L18.395,8.8 L17.03,5.23 L16.365,5.23 L15,8.8 L15.625,8.8 Z M17.27,7.425 L16.125,7.425 L16.69,5.86 L16.71,5.86 L17.27,7.425 Z M19.2480315,8.8 L19.2480315,7.245 C19.2680315,7.04 19.3380315,6.88 19.4580315,6.77 C19.5630315,6.67 19.6880315,6.62 19.8280315,6.62 C20.2180315,6.62 20.4130315,6.83 20.4130315,7.255 L20.4130315,8.8 L20.9830315,8.8 L20.9830315,7.205 C20.9830315,6.495 20.6580315,6.145 20.0130315,6.145 C19.8580315,6.145 19.7180315,6.175 19.5880315,6.24 C19.4630315,6.3 19.3480315,6.395 19.2480315,6.515 L19.2480315,6.215 L18.6780315,6.215 L18.6780315,8.8 L19.2480315,8.8 Z M22.6660631,8.87 C23.0060631,8.87 23.2660631,8.755 23.4460631,8.525 L23.4460631,8.8 L23.9760631,8.8 L23.9760631,5.16 L23.4060631,5.16 L23.4060631,6.57 C23.1910631,6.285 22.9360631,6.145 22.6360631,6.145 C22.2660631,6.145 21.9710631,6.28 21.7610631,6.55 C21.5610631,6.8 21.4660631,7.115 21.4660631,7.495 C21.4660631,7.89 21.5660631,8.215 21.7660631,8.465 C21.9810631,8.735 22.2810631,8.87 22.6660631,8.87 Z M22.7510631,8.41 C22.4960631,8.41 22.3110631,8.32 22.1960631,8.14 C22.0960631,7.99 22.0510631,7.775 22.0510631,7.495 C22.0510631,7.215 22.1010631,7.005 22.2060631,6.86 C22.3260631,6.69 22.5110631,6.605 22.7710631,6.605 C22.9510631,6.605 23.1060631,6.68 23.2260631,6.83 C23.3560631,6.99 23.4260631,7.21 23.4260631,7.485 L23.4260631,7.525 C23.4260631,7.775 23.3710631,7.985 23.2660631,8.145 C23.1460631,8.32 22.9710631,8.41 22.7510631,8.41 Z M25.1240946,8.8 L25.1240946,7.43 C25.1240946,7.21 25.1890946,7.035 25.3290946,6.9 C25.4490946,6.78 25.5840946,6.725 25.7340946,6.725 C25.8540946,6.725 25.9740946,6.74 26.1040946,6.78 L26.1040946,6.21 C26.0140946,6.165 25.9040946,6.145 25.7790946,6.145 C25.6190946,6.145 25.4840946,6.19 25.3690946,6.285 C25.2740946,6.355 25.1940946,6.455 25.1240946,6.585 L25.1240946,6.215 L24.5590946,6.215 L24.5590946,8.8 L25.1240946,8.8 Z M27.6121262,8.87 C28.0021262,8.87 28.3221262,8.74 28.5621262,8.48 C28.7921262,8.23 28.9121262,7.905 28.9121262,7.51 C28.9121262,7.11 28.7921262,6.785 28.5571262,6.53 C28.3171262,6.27 28.0021262,6.145 27.6121262,6.145 C27.2171262,6.145 26.9021262,6.27 26.6671262,6.53 C26.4271262,6.785 26.3121262,7.11 26.3121262,7.51 C26.3121262,7.905 26.4271262,8.23 26.6621262,8.48 C26.9021262,8.74 27.2171262,8.87 27.6121262,8.87 Z M27.6121262,8.405 C27.3721262,8.405 27.1921262,8.31 27.0621262,8.125 C26.9521262,7.965 26.8971262,7.76 26.8971262,7.51 C26.8971262,7.26 26.9521262,7.05 27.0621262,6.89 C27.1921262,6.7 27.3721262,6.61 27.6121262,6.61 C27.8471262,6.61 28.0321262,6.7 28.1621262,6.89 C28.2721262,7.05 28.3321262,7.26 28.3321262,7.51 C28.3321262,7.755 28.2721262,7.96 28.1621262,8.125 C28.0321262,8.31 27.8471262,8.405 27.6121262,8.405 Z M29.7801577,5.915 C29.8901577,5.915 29.9801577,5.88 30.0551577,5.81 C30.1301577,5.74 30.1701577,5.645 30.1701577,5.535 C30.1701577,5.425 30.1301577,5.335 30.0601577,5.265 C29.9851577,5.195 29.8901577,5.16 29.7801577,5.16 C29.6701577,5.16 29.5801577,5.195 29.5051577,5.265 C29.4301577,5.335 29.3951577,5.425 29.3951577,5.535 C29.3951577,5.645 29.4301577,5.735 29.5051577,5.81 C29.5801577,5.88 29.6701577,5.915 29.7801577,5.915 Z M30.0651577,8.8 L30.0651577,6.215 L29.4951577,6.215 L29.4951577,8.8 L30.0651577,8.8 Z M31.8531892,8.87 C32.1931892,8.87 32.4531892,8.755 32.6331892,8.525 L32.6331892,8.8 L33.1631892,8.8 L33.1631892,5.16 L32.5931892,5.16 L32.5931892,6.57 C32.3781892,6.285 32.1231892,6.145 31.8231892,6.145 C31.4531892,6.145 31.1581892,6.28 30.9481892,6.55 C30.7481892,6.8 30.6531892,7.115 30.6531892,7.495 C30.6531892,7.89 30.7531892,8.215 30.9531892,8.465 C31.1681892,8.735 31.4681892,8.87 31.8531892,8.87 Z M31.9381892,8.41 C31.6831892,8.41 31.4981892,8.32 31.3831892,8.14 C31.2831892,7.99 31.2381892,7.775 31.2381892,7.495 C31.2381892,7.215 31.2881892,7.005 31.3931892,6.86 C31.5131892,6.69 31.6981892,6.605 31.9581892,6.605 C32.1381892,6.605 32.2931892,6.68 32.4131892,6.83 C32.5431892,6.99 32.6131892,7.21 32.6131892,7.485 L32.6131892,7.525 C32.6131892,7.775 32.5581892,7.985 32.4531892,8.145 C32.3331892,8.32 32.1581892,8.41 31.9381892,8.41 Z M37.7242523,9.32 L37.7242523,6.59 C38.1342523,6.8 38.6442523,7.105 39.2592523,7.495 L39.5742523,7.025 C38.9492523,6.655 38.3342523,6.32 37.7242523,6.03 L37.7242523,5.42 L39.8342523,5.42 L39.8342523,4.91 L35.3492523,4.91 L35.3492523,5.42 L37.1992523,5.42 L37.1992523,9.32 L37.7242523,9.32 Z M42.8622838,9.325 C43.1672838,9.16 43.4422838,8.93 43.6822838,8.63 C43.7122838,8.695 43.7522838,8.755 43.7922838,8.815 C44.0022838,9.115 44.2022838,9.265 44.3872838,9.265 C44.6172838,9.265 44.7872838,8.93 44.9072838,8.265 L44.4672838,8.025 C44.4172838,8.495 44.3672838,8.73 44.3222838,8.73 C44.2622838,8.73 44.1772838,8.615 44.0622838,8.39 C44.0322838,8.335 44.0072838,8.27 43.9772838,8.195 C44.2172838,7.78 44.4172838,7.27 44.5722838,6.665 L44.1072838,6.455 C44.0172838,6.835 43.9072838,7.175 43.7722838,7.485 L43.7322838,7.29 C43.6822838,7.04 43.6422838,6.715 43.6172838,6.31 L44.7922838,6.31 L44.7922838,5.835 L43.5872838,5.835 C43.5672838,5.495 43.5572838,5.105 43.5572838,4.675 L43.0522838,4.675 C43.0522838,5.09 43.0622838,5.475 43.0822838,5.835 L42.0422838,5.835 L42.0422838,5.515 L42.8872838,5.515 L42.8872838,5.045 L42.0422838,5.045 L42.0422838,4.68 L41.5322838,4.68 L41.5322838,5.045 L40.6172838,5.045 L40.6172838,5.515 L41.5322838,5.515 L41.5322838,5.835 L40.3572838,5.835 L40.3572838,6.31 L43.1122838,6.31 C43.1472838,6.735 43.2022838,7.1 43.2722838,7.41 C43.3222838,7.655 43.3822838,7.88 43.4522838,8.08 C43.2122838,8.44 42.9172838,8.715 42.5772838,8.905 L42.8622838,9.325 Z M44.2622838,5.725 L44.6472838,5.455 C44.5122838,5.245 44.3172838,5 44.0672838,4.72 L43.6722838,4.97 C43.9222838,5.25 44.1172838,5.5 44.2622838,5.725 Z M42.1672838,9.305 L42.1672838,8.755 C42.4172838,8.725 42.6572838,8.695 42.8872838,8.665 L42.8872838,8.215 C42.6622838,8.245 42.4222838,8.27 42.1672838,8.295 L42.1672838,8.01 L42.8622838,8.01 L42.8622838,7.575 L42.1672838,7.575 L42.1672838,7.275 L41.6572838,7.275 L41.6572838,7.575 L41.2322838,7.575 C41.3222838,7.43 41.4122838,7.27 41.4972838,7.1 L42.9122838,7.1 L42.9122838,6.64 L41.6872838,6.64 C41.7122838,6.57 41.7372838,6.495 41.7672838,6.42 L41.2722838,6.325 C41.2372838,6.43 41.2022838,6.535 41.1622838,6.64 L40.5072838,6.64 L40.5072838,7.1 L40.9672838,7.1 C40.8672838,7.295 40.7572838,7.46 40.6472838,7.595 L40.7522838,8.01 L41.6572838,8.01 L41.6572838,8.34 C41.3072838,8.37 40.9322838,8.395 40.5372838,8.415 L40.5972838,8.895 C40.9622838,8.865 41.3172838,8.835 41.6572838,8.805 L41.6572838,9.305 L42.1672838,9.305 Z" id="Android下载" fill="#FFFFFF" fill-rule="nonzero"></path>
                    <path d="M7.17862626,5.01502173 C7.26992349,5.00995831 7.34127685,4.93686061 7.34127685,4.84839491 C7.34127685,4.7599292 7.26992349,4.68683151 7.17862626,4.68176808 C7.08585858,4.68176808 7.01062626,4.75865172 7.01062626,4.84839491 C7.01062626,4.93813809 7.08585859,5.01502173 7.17862626,5.01502173 L7.17862626,5.01502173 Z M9.04359596,5.01502173 C9.13636364,5.01502173 9.21159596,4.93813809 9.21159596,4.84839491 C9.21159596,4.75865172 9.13636364,4.68176808 9.04359596,4.68176808 C8.95229872,4.68683151 8.88094537,4.7599292 8.88094537,4.84839491 C8.88094537,4.93686061 8.95229872,5.00995831 9.04359596,5.01502173 L9.04359596,5.01502173 Z M5.45507071,5.80164262 C5.70366984,5.8025428 5.90496848,5.99727852 5.90589899,6.2377726 L5.90589899,8.07613981 C5.90589899,8.31992388 5.70707071,8.5163739 5.45507071,8.5163739 C5.20307071,8.5163739 5,8.31965028 5,8.07613981 L5,6.2377726 C5,5.99836624 5.20335353,5.80164262 5.45507071,5.80164262 L5.45507071,5.80164262 Z M10.1395556,5.88290398 L10.1395556,8.73006117 C10.1395556,8.99080889 9.92290909,9.20039206 9.65789899,9.20039205 L9.32642424,9.20039205 L9.32642424,10.170877 C9.32642424,10.4146611 9.12307071,10.6111111 8.87135353,10.6111111 C8.61963636,10.6111111 8.41628282,10.4143875 8.41628283,10.170877 L8.41628283,9.20039205 L7.80650505,9.20039205 L7.80650505,10.170877 C7.80650505,10.4146611 7.60315152,10.6111111 7.35143434,10.6111111 C7.10143937,10.6096045 6.8998219,10.4127249 6.90060606,10.170877 L6.89608081,9.20039205 L6.56913131,9.20039205 C6.44007266,9.2007568 6.31619123,9.15132136 6.22493259,9.06303802 C6.13367396,8.97475468 6.08257246,8.85491214 6.08294742,8.73006117 L6.08294742,5.88290398 L10.1398384,5.88290398 L10.1395556,5.88290398 Z M9.11430302,4.15151721 C9.73313131,4.45932538 10.1528485,5.04922264 10.1528485,5.72913669 L6.06513131,5.72913669 C6.06513131,5.04949625 6.48484848,4.45932538 7.10791919,4.15151721 L6.79426263,3.59144314 C6.78544177,3.57725836 6.78281046,3.56026356 6.78694815,3.54420111 C6.79108583,3.52813865 6.80165319,3.51432574 6.81632323,3.50580406 C6.84715151,3.49294452 6.8870303,3.50142634 6.90484848,3.53152315 L7.22303031,4.09597494 C7.49256566,3.98051267 7.79321212,3.91648857 8.11139394,3.91648857 C8.42957576,3.91648857 8.73022222,3.98051267 8.99975757,4.09597494 L9.31793939,3.53152315 C9.33575757,3.50169996 9.37535353,3.49294453 9.40646464,3.50580406 C9.42113468,3.51432574 9.43170205,3.52813865 9.43583973,3.5442011 C9.43997742,3.56026356 9.43734611,3.57725836 9.42852525,3.59144314 L9.11430302,4.15151721 Z M11.2222222,6.2377726 L11.2222222,8.07613981 C11.2222222,8.31992388 11.0188687,8.5163739 10.7671515,8.5163739 C10.5171565,8.5148673 10.3155391,8.31798773 10.316321,8.07613981 L10.316321,6.2377726 C10.3160218,6.1220146 10.3634229,6.01091373 10.448035,5.9290602 C10.5326471,5.84720668 10.6474923,5.80135104 10.7671515,5.80164124 C11.0191515,5.80164124 11.2222222,5.99398853 11.2222222,6.2377726 Z" id="形状" fill="#FFFFFF" fill-rule="nonzero"></path>
                </g>
            </g>
        </g>
    </g>
</svg>