<svg width="58" height="16" xmlns="http://www.w3.org/2000/svg"><g transform="translate(1 1)" fill="none" fill-rule="evenodd"><rect stroke="#FFF" stroke-width=".5" width="56" height="14" rx="4"/><path d="m15.625 8.8.325-.895h1.495l.325.895h.625L17.03 5.23h-.665L15 8.8h.625Zm1.645-1.375h-1.145l.565-1.565h.02l.56 1.565ZM19.248 8.8V7.245c.02-.205.09-.365.21-.475.105-.1.23-.15.37-.15.39 0 .585.21.585.635V8.8h.57V7.205c0-.71-.325-1.06-.97-1.06a.93.93 0 0 0-.425.095c-.125.06-.24.155-.34.275v-.3h-.57V8.8h.57Zm3.418.07c.34 0 .6-.115.78-.345V8.8h.53V5.16h-.57v1.41c-.215-.285-.47-.425-.77-.425-.37 0-.665.135-.875.405-.2.25-.295.565-.295.945 0 .395.1.72.3.97.215.27.515.405.9.405Zm.085-.46c-.255 0-.44-.09-.555-.27-.1-.15-.145-.365-.145-.645s.05-.49.155-.635c.12-.17.305-.255.565-.255.18 0 .335.075.455.225.13.16.2.38.2.655v.04c0 .25-.055.46-.16.62a.593.593 0 0 1-.515.265Zm2.373.39V7.43c0-.22.065-.395.205-.53a.554.554 0 0 1 .405-.175c.12 0 .24.015.37.055v-.57a.725.725 0 0 0-.325-.065.618.618 0 0 0-.41.14.88.88 0 0 0-.245.3v-.37h-.565V8.8h.565Zm2.488.07c.39 0 .71-.13.95-.39.23-.25.35-.575.35-.97 0-.4-.12-.725-.355-.98-.24-.26-.555-.385-.945-.385-.395 0-.71.125-.945.385-.24.255-.355.58-.355.98 0 .395.115.72.35.97.24.26.555.39.95.39Zm0-.465a.631.631 0 0 1-.55-.28c-.11-.16-.165-.365-.165-.615s.055-.46.165-.62a.62.62 0 0 1 .55-.28c.235 0 .42.09.55.28.11.16.17.37.17.62 0 .245-.06.45-.17.615a.637.637 0 0 1-.55.28Zm2.168-2.49c.11 0 .2-.035.275-.105a.366.366 0 0 0 .115-.275c0-.11-.04-.2-.11-.27a.397.397 0 0 0-.28-.105c-.11 0-.2.035-.275.105a.35.35 0 0 0-.11.27c0 .11.035.2.11.275.075.07.165.105.275.105Zm.285 2.885V6.215h-.57V8.8h.57Zm1.788.07c.34 0 .6-.115.78-.345V8.8h.53V5.16h-.57v1.41c-.215-.285-.47-.425-.77-.425-.37 0-.665.135-.875.405-.2.25-.295.565-.295.945 0 .395.1.72.3.97.215.27.515.405.9.405Zm.085-.46c-.255 0-.44-.09-.555-.27-.1-.15-.145-.365-.145-.645s.05-.49.155-.635c.12-.17.305-.255.565-.255.18 0 .335.075.455.225.13.16.2.38.2.655v.04c0 .25-.055.46-.16.62a.593.593 0 0 1-.515.265Zm5.786.91V6.59c.41.21.92.515 1.535.905l.315-.47c-.625-.37-1.24-.705-1.85-.995v-.61h2.11v-.51H35.35v.51h1.85v3.9h.525Zm5.138.005c.305-.165.58-.395.82-.695.03.065.07.125.11.185.21.3.41.45.595.45.23 0 .4-.335.52-1l-.44-.24c-.05.47-.1.705-.145.705-.06 0-.145-.115-.26-.34-.03-.055-.055-.12-.085-.195.24-.415.44-.925.595-1.53l-.465-.21c-.09.38-.2.72-.335 1.03l-.04-.195c-.05-.25-.09-.575-.115-.98h1.175v-.475h-1.205c-.02-.34-.03-.73-.03-1.16h-.505c0 .415.01.8.03 1.16h-1.04v-.32h.845v-.47h-.845V4.68h-.51v.365h-.915v.47h.915v.32h-1.175v.475h2.755c.035.425.09.79.16 1.1.05.245.11.47.18.67-.24.36-.535.635-.875.825l.285.42Zm1.4-3.6.385-.27a6.174 6.174 0 0 0-.58-.735l-.395.25c.25.28.445.53.59.755Zm-2.095 3.58v-.55c.25-.03.49-.06.72-.09v-.45c-.225.03-.465.055-.72.08V8.01h.695v-.435h-.695v-.3h-.51v.3h-.425c.09-.145.18-.305.265-.475h1.415v-.46h-1.225c.025-.07.05-.145.08-.22l-.495-.095c-.035.105-.07.21-.11.315h-.655v.46h.46c-.1.195-.21.36-.32.495l.105.415h.905v.33c-.35.03-.725.055-1.12.075l.06.48c.365-.03.72-.06 1.06-.09v.5h.51ZM7.179 5.015a.17.17 0 0 0 .162-.167.17.17 0 0 0-.162-.166.169.169 0 0 0-.168.166c0 .09.075.167.168.167Zm1.865 0a.169.169 0 0 0 .168-.167.169.169 0 0 0-.168-.166.17.17 0 0 0-.163.166.17.17 0 0 0 .163.167Zm-3.589.787c.249 0 .45.195.45.436v1.838c0 .244-.198.44-.45.44A.447.447 0 0 1 5 8.076V6.238c0-.24.203-.436.455-.436Zm4.685.08V8.73c0 .26-.217.47-.482.47h-.332v.97c0 .245-.203.441-.455.441a.447.447 0 0 1-.455-.44V9.2h-.61v.97c0 .244-.203.44-.455.44a.446.446 0 0 1-.45-.44l-.005-.97H6.57a.493.493 0 0 1-.344-.138.461.461 0 0 1-.142-.333V5.883h4.057Zm-1.026-1.73c.62.307 1.039.897 1.039 1.577H6.065c0-.68.42-1.27 1.043-1.577l-.314-.56a.06.06 0 0 1-.007-.048.063.063 0 0 1 .03-.038c.03-.013.07-.005.088.026l.318.564c.27-.115.57-.18.888-.18.319 0 .62.065.889.18l.318-.564c.018-.03.057-.04.088-.026a.063.063 0 0 1 .03.038.06.06 0 0 1-.007.047l-.315.56Zm2.108 2.086v1.838c0 .244-.203.44-.455.44a.446.446 0 0 1-.45-.44V6.238c-.001-.116.046-.227.131-.309a.458.458 0 0 1 .32-.127c.251 0 .454.192.454.436Z" fill="#FFF" fill-rule="nonzero"/></g></svg>