<svg width="58" height="16" xmlns="http://www.w3.org/2000/svg"><g transform="translate(1 1)" fill="none" fill-rule="evenodd"><rect stroke="#FFF" stroke-width=".5" width="56" height="14" rx="4"/><path d="m15.625 8.5.325-.895h1.495l.325.895h.625L17.03 4.93h-.665L15 8.5h.625Zm1.645-1.375h-1.145l.565-1.565h.02l.56 1.565Zm1.978 2.365V8.145c.21.28.47.425.77.425.37 0 .665-.135.875-.405.195-.25.295-.565.295-.945 0-.4-.1-.72-.3-.97-.22-.27-.52-.405-.9-.405-.34 0-.6.115-.78.345v-.275h-.53V9.49h.57Zm.635-1.38a.557.557 0 0 1-.455-.225c-.135-.165-.2-.385-.2-.655v-.04c0-.26.05-.465.16-.62.12-.18.29-.265.515-.265.25 0 .435.09.555.27.095.15.145.365.145.645s-.055.495-.16.645c-.12.16-.31.245-.56.245Zm2.358 1.38V8.145c.21.28.47.425.77.425.37 0 .665-.135.875-.405.195-.25.295-.565.295-.945 0-.4-.1-.72-.3-.97-.22-.27-.52-.405-.9-.405-.34 0-.6.115-.78.345v-.275h-.53V9.49h.57Zm.635-1.38a.557.557 0 0 1-.455-.225c-.135-.165-.2-.385-.2-.655v-.04c0-.26.05-.465.16-.62.12-.18.29-.265.515-.265.25 0 .435.09.555.27.095.15.145.365.145.645s-.055.495-.16.645c-.12.16-.31.245-.56.245Zm4.806.46c.455 0 .81-.095 1.06-.275a.896.896 0 0 0 .375-.76c0-.33-.155-.585-.465-.77-.14-.08-.45-.2-.935-.35a5.024 5.024 0 0 1-.61-.22c-.17-.09-.25-.215-.25-.365 0-.17.07-.295.22-.37.12-.065.29-.095.515-.095.26 0 .46.045.59.145.13.095.225.255.275.475h.58c-.035-.39-.18-.68-.43-.865-.235-.175-.565-.26-.985-.26-.385 0-.7.085-.95.26-.27.18-.4.43-.4.745a.79.79 0 0 0 .41.72c.105.06.38.16.82.3.395.12.625.2.695.235.22.11.335.26.335.45 0 .15-.08.265-.23.355-.15.085-.36.13-.62.13-.295 0-.51-.055-.65-.155-.155-.115-.25-.31-.29-.58h-.58c.025.455.19.785.49.995.245.17.59.255 1.03.255Zm3.188-.07v-.47h-.34c-.06 0-.1-.015-.13-.045-.03-.035-.04-.08-.04-.14v-1.46h.575v-.47h-.575V5.08l-.57.235v.6h-.465v.47h.465v1.46c0 .21.05.365.15.475.105.12.27.18.495.18h.435Zm1.673.07c.39 0 .71-.13.95-.39.23-.25.35-.575.35-.97 0-.4-.12-.725-.355-.98-.24-.26-.555-.385-.945-.385-.395 0-.71.125-.945.385-.24.255-.355.58-.355.98 0 .395.115.72.35.97.24.26.555.39.95.39Zm0-.465a.631.631 0 0 1-.55-.28c-.11-.16-.165-.365-.165-.615s.055-.46.165-.62a.62.62 0 0 1 .55-.28c.235 0 .42.09.55.28.11.16.17.37.17.62 0 .245-.06.45-.17.615a.637.637 0 0 1-.55.28Zm2.348.395V7.13c0-.22.065-.395.205-.53a.554.554 0 0 1 .405-.175c.12 0 .24.015.37.055v-.57a.725.725 0 0 0-.325-.065.618.618 0 0 0-.41.14.88.88 0 0 0-.245.3v-.37h-.565V8.5h.565Zm2.413.07c.345 0 .63-.1.86-.295.18-.16.3-.365.36-.605h-.57a.857.857 0 0 1-.23.315c-.11.08-.25.12-.425.12-.205 0-.365-.065-.475-.19-.11-.125-.175-.31-.195-.55h1.935c0-.465-.105-.83-.31-1.09-.225-.29-.55-.43-.975-.43-.385 0-.69.13-.91.395-.23.26-.34.58-.34.965 0 .43.12.765.36 1.01.225.235.53.355.915.355Zm.665-1.635h-1.33c.035-.205.105-.36.21-.465.11-.11.255-.16.445-.16.4 0 .625.205.675.625Z" fill="#EFF1F4" fill-rule="nonzero"/><path d="M10.17 6.768c0-.972.835-1.378.835-1.378s-.537-.728-1.333-.728c-.671 0-.919.31-1.437.31-.515 0-.8-.31-1.425-.31-.797 0-1.81.757-1.81 2.101 0 1.805 1.289 3.348 2.003 3.348.327 0 .713-.301 1.257-.301.531 0 .86.3 1.218.3.326 0 .626-.163 1.1-.773.474-.61.644-1.135.644-1.135-.111-.04-1.051-.462-1.051-1.434Zm-.643-3.621c0-.05-.003-.099-.007-.147-.844.052-1.513.74-1.513 1.582 0 .049.003.098.008.146.844-.052 1.512-.74 1.512-1.581ZM43.375 9.145v-2.73c.41.21.92.515 1.535.905l.315-.47c-.625-.37-1.24-.705-1.85-.995v-.61h2.11v-.51H41v.51h1.85v3.9h.525Zm5.138.005c.305-.165.58-.395.82-.695.03.065.07.125.11.185.21.3.41.45.595.45.23 0 .4-.335.52-1l-.44-.24c-.05.47-.1.705-.145.705-.06 0-.145-.115-.26-.34-.03-.055-.055-.12-.085-.195.24-.415.44-.925.595-1.53l-.465-.21c-.09.38-.2.72-.335 1.03l-.04-.195c-.05-.25-.09-.575-.115-.98h1.175V5.66h-1.205c-.02-.34-.03-.73-.03-1.16h-.505c0 .415.01.8.03 1.16h-1.04v-.32h.845v-.47h-.845v-.365h-.51v.365h-.915v.47h.915v.32h-1.175v.475h2.755c.035.425.09.79.16 1.1.05.245.11.47.18.67-.24.36-.535.635-.875.825l.285.42Zm1.4-3.6.385-.27a6.174 6.174 0 0 0-.58-.735l-.395.25c.25.28.445.53.59.755Zm-2.095 3.58v-.55c.25-.03.49-.06.72-.09v-.45c-.225.03-.465.055-.72.08v-.285h.695V7.4h-.695v-.3h-.51v.3h-.425c.09-.145.18-.305.265-.475h1.415v-.46h-1.225c.025-.07.05-.145.08-.22l-.495-.095c-.035.105-.07.21-.11.315h-.655v.46h.46c-.1.195-.21.36-.32.495l.105.415h.905v.33c-.35.03-.725.055-1.12.075l.06.48c.365-.03.72-.06 1.06-.09v.5h.51Z" fill="#FFF" fill-rule="nonzero"/></g></svg>