<?xml version="1.0" encoding="UTF-8"?>
<svg width="58px" height="16px" viewBox="0 0 58 16" version="1.1" xmlns="http://www.w3.org/2000/svg" xmlns:xlink="http://www.w3.org/1999/xlink">
    <title>ios</title>
    <g id="页面-1" stroke="none" stroke-width="1" fill="none" fill-rule="evenodd">
        <g id="手机备份-2" transform="translate(-181.000000, -119.000000)">
            <g id="ios" transform="translate(182.000000, 120.000000)">
                <rect id="矩形备份-8" stroke="#FFFFFF" stroke-width="0.5" x="0" y="0" width="56" height="14" rx="4"></rect>
                <path d="M15.625,8.5 L15.95,7.605 L17.445,7.605 L17.77,8.5 L18.395,8.5 L17.03,4.93 L16.365,4.93 L15,8.5 L15.625,8.5 Z M17.27,7.125 L16.125,7.125 L16.69,5.56 L16.71,5.56 L17.27,7.125 Z M19.2480315,9.49 L19.2480315,8.145 C19.4580315,8.425 19.7180315,8.57 20.0180315,8.57 C20.3880315,8.57 20.6830315,8.435 20.8930315,8.165 C21.0880315,7.915 21.1880315,7.6 21.1880315,7.22 C21.1880315,6.82 21.0880315,6.5 20.8880315,6.25 C20.6680315,5.98 20.3680315,5.845 19.9880315,5.845 C19.6480315,5.845 19.3880315,5.96 19.2080315,6.19 L19.2080315,5.915 L18.6780315,5.915 L18.6780315,9.49 L19.2480315,9.49 Z M19.8830315,8.11 C19.6980315,8.11 19.5480315,8.035 19.4280315,7.885 C19.2930315,7.72 19.2280315,7.5 19.2280315,7.23 L19.2280315,7.19 C19.2280315,6.93 19.2780315,6.725 19.3880315,6.57 C19.5080315,6.39 19.6780315,6.305 19.9030315,6.305 C20.1530315,6.305 20.3380315,6.395 20.4580315,6.575 C20.5530315,6.725 20.6030315,6.94 20.6030315,7.22 C20.6030315,7.5 20.5480315,7.715 20.4430315,7.865 C20.3230315,8.025 20.1330315,8.11 19.8830315,8.11 Z M22.2410631,9.49 L22.2410631,8.145 C22.4510631,8.425 22.7110631,8.57 23.0110631,8.57 C23.3810631,8.57 23.6760631,8.435 23.8860631,8.165 C24.0810631,7.915 24.1810631,7.6 24.1810631,7.22 C24.1810631,6.82 24.0810631,6.5 23.8810631,6.25 C23.6610631,5.98 23.3610631,5.845 22.9810631,5.845 C22.6410631,5.845 22.3810631,5.96 22.2010631,6.19 L22.2010631,5.915 L21.6710631,5.915 L21.6710631,9.49 L22.2410631,9.49 Z M22.8760631,8.11 C22.6910631,8.11 22.5410631,8.035 22.4210631,7.885 C22.2860631,7.72 22.2210631,7.5 22.2210631,7.23 L22.2210631,7.19 C22.2210631,6.93 22.2710631,6.725 22.3810631,6.57 C22.5010631,6.39 22.6710631,6.305 22.8960631,6.305 C23.1460631,6.305 23.3310631,6.395 23.4510631,6.575 C23.5460631,6.725 23.5960631,6.94 23.5960631,7.22 C23.5960631,7.5 23.5410631,7.715 23.4360631,7.865 C23.3160631,8.025 23.1260631,8.11 22.8760631,8.11 Z M27.6821262,8.57 C28.1371262,8.57 28.4921262,8.475 28.7421262,8.295 C28.9921262,8.11 29.1171262,7.855 29.1171262,7.535 C29.1171262,7.205 28.9621262,6.95 28.6521262,6.765 C28.5121262,6.685 28.2021262,6.565 27.7171262,6.415 C27.3871262,6.31 27.1821262,6.235 27.1071262,6.195 C26.9371262,6.105 26.8571262,5.98 26.8571262,5.83 C26.8571262,5.66 26.9271262,5.535 27.0771262,5.46 C27.1971262,5.395 27.3671262,5.365 27.5921262,5.365 C27.8521262,5.365 28.0521262,5.41 28.1821262,5.51 C28.3121262,5.605 28.4071262,5.765 28.4571262,5.985 L29.0371262,5.985 C29.0021262,5.595 28.8571262,5.305 28.6071262,5.12 C28.3721262,4.945 28.0421262,4.86 27.6221262,4.86 C27.2371262,4.86 26.9221262,4.945 26.6721262,5.12 C26.4021262,5.3 26.2721262,5.55 26.2721262,5.865 C26.2721262,6.18 26.4071262,6.42 26.6821262,6.585 C26.7871262,6.645 27.0621262,6.745 27.5021262,6.885 C27.8971262,7.005 28.1271262,7.085 28.1971262,7.12 C28.4171262,7.23 28.5321262,7.38 28.5321262,7.57 C28.5321262,7.72 28.4521262,7.835 28.3021262,7.925 C28.1521262,8.01 27.9421262,8.055 27.6821262,8.055 C27.3871262,8.055 27.1721262,8 27.0321262,7.9 C26.8771262,7.785 26.7821262,7.59 26.7421262,7.32 L26.1621262,7.32 C26.1871262,7.775 26.3521262,8.105 26.6521262,8.315 C26.8971262,8.485 27.2421262,8.57 27.6821262,8.57 Z M30.8701577,8.5 L30.8701577,8.03 L30.5301577,8.03 C30.4701577,8.03 30.4301577,8.015 30.4001577,7.985 C30.3701577,7.95 30.3601577,7.905 30.3601577,7.845 L30.3601577,6.385 L30.9351577,6.385 L30.9351577,5.915 L30.3601577,5.915 L30.3601577,5.08 L29.7901577,5.315 L29.7901577,5.915 L29.3251577,5.915 L29.3251577,6.385 L29.7901577,6.385 L29.7901577,7.845 C29.7901577,8.055 29.8401577,8.21 29.9401577,8.32 C30.0451577,8.44 30.2101577,8.5 30.4351577,8.5 L30.8701577,8.5 Z M32.5431892,8.57 C32.9331892,8.57 33.2531892,8.44 33.4931892,8.18 C33.7231892,7.93 33.8431892,7.605 33.8431892,7.21 C33.8431892,6.81 33.7231892,6.485 33.4881892,6.23 C33.2481892,5.97 32.9331892,5.845 32.5431892,5.845 C32.1481892,5.845 31.8331892,5.97 31.5981892,6.23 C31.3581892,6.485 31.2431892,6.81 31.2431892,7.21 C31.2431892,7.605 31.3581892,7.93 31.5931892,8.18 C31.8331892,8.44 32.1481892,8.57 32.5431892,8.57 Z M32.5431892,8.105 C32.3031892,8.105 32.1231892,8.01 31.9931892,7.825 C31.8831892,7.665 31.8281892,7.46 31.8281892,7.21 C31.8281892,6.96 31.8831892,6.75 31.9931892,6.59 C32.1231892,6.4 32.3031892,6.31 32.5431892,6.31 C32.7781892,6.31 32.9631892,6.4 33.0931892,6.59 C33.2031892,6.75 33.2631892,6.96 33.2631892,7.21 C33.2631892,7.455 33.2031892,7.66 33.0931892,7.825 C32.9631892,8.01 32.7781892,8.105 32.5431892,8.105 Z M34.8912208,8.5 L34.8912208,7.13 C34.8912208,6.91 34.9562208,6.735 35.0962208,6.6 C35.2162208,6.48 35.3512208,6.425 35.5012208,6.425 C35.6212208,6.425 35.7412208,6.44 35.8712208,6.48 L35.8712208,5.91 C35.7812208,5.865 35.6712208,5.845 35.5462208,5.845 C35.3862208,5.845 35.2512208,5.89 35.1362208,5.985 C35.0412208,6.055 34.9612208,6.155 34.8912208,6.285 L34.8912208,5.915 L34.3262208,5.915 L34.3262208,8.5 L34.8912208,8.5 Z M37.3042523,8.57 C37.6492523,8.57 37.9342523,8.47 38.1642523,8.275 C38.3442523,8.115 38.4642523,7.91 38.5242523,7.67 L37.9542523,7.67 C37.8842523,7.815 37.8092523,7.92 37.7242523,7.985 C37.6142523,8.065 37.4742523,8.105 37.2992523,8.105 C37.0942523,8.105 36.9342523,8.04 36.8242523,7.915 C36.7142523,7.79 36.6492523,7.605 36.6292523,7.365 L38.5642523,7.365 C38.5642523,6.9 38.4592523,6.535 38.2542523,6.275 C38.0292523,5.985 37.7042523,5.845 37.2792523,5.845 C36.8942523,5.845 36.5892523,5.975 36.3692523,6.24 C36.1392523,6.5 36.0292523,6.82 36.0292523,7.205 C36.0292523,7.635 36.1492523,7.97 36.3892523,8.215 C36.6142523,8.45 36.9192523,8.57 37.3042523,8.57 Z M37.9692523,6.935 L36.6392523,6.935 C36.6742523,6.73 36.7442523,6.575 36.8492523,6.47 C36.9592523,6.36 37.1042523,6.31 37.2942523,6.31 C37.6942523,6.31 37.9192523,6.515 37.9692523,6.935 Z" id="AppStore" fill="#EFF1F4" fill-rule="nonzero"></path>
                <path d="M10.1708837,6.76796244 C10.1708837,5.79593108 11.00491,5.38990222 11.00491,5.38990222 C11.00491,5.38990222 10.4678333,4.66209845 9.67172651,4.66209845 C9.00072486,4.66209845 8.75336539,4.97204141 8.23495688,4.97204141 C7.7203306,4.97204141 7.43505974,4.66209845 6.80955013,4.66209845 C6.01345142,4.66209845 5,5.41931124 5,6.76332183 C5,8.56846844 6.2889387,10.1111111 7.00288932,10.1111111 C7.33015347,10.1111111 7.71635399,9.80990106 8.26021764,9.80985338 C8.79100951,9.80977392 9.11949661,10.1108966 9.47838733,10.1108966 C9.80441233,10.1108966 10.1038888,9.94700543 10.5777691,9.33700462 C11.0516331,8.7270197 11.2222222,8.20210719 11.2222222,8.20210719 C11.1110149,8.16240779 10.1708837,7.73996996 10.1708837,6.76796244 Z M9.52707038,3.14656834 C9.52707038,3.09714274 9.52443821,3.04832107 9.51993517,3 C8.67576892,3.05222267 8.00748853,3.74008865 8.00748853,4.58153156 C8.00748853,4.63095715 8.0101288,4.67980267 8.01463185,4.72806811 C8.85879809,4.67588517 9.52707038,3.9879874 9.52707038,3.14656834 Z" id="形状" fill="#FFFFFF" fill-rule="nonzero"></path>
                <path d="M43.375,9.145 L43.375,6.415 C43.785,6.625 44.295,6.93 44.91,7.32 L45.225,6.85 C44.6,6.48 43.985,6.145 43.375,5.855 L43.375,5.245 L45.485,5.245 L45.485,4.735 L41,4.735 L41,5.245 L42.85,5.245 L42.85,9.145 L43.375,9.145 Z M48.5130315,9.15 C48.8180315,8.985 49.0930315,8.755 49.3330315,8.455 C49.3630315,8.52 49.4030315,8.58 49.4430315,8.64 C49.6530315,8.94 49.8530315,9.09 50.0380315,9.09 C50.2680315,9.09 50.4380315,8.755 50.5580315,8.09 L50.1180315,7.85 C50.0680315,8.32 50.0180315,8.555 49.9730315,8.555 C49.9130315,8.555 49.8280315,8.44 49.7130315,8.215 C49.6830315,8.16 49.6580315,8.095 49.6280315,8.02 C49.8680315,7.605 50.0680315,7.095 50.2230315,6.49 L49.7580315,6.28 C49.6680315,6.66 49.5580315,7 49.4230315,7.31 L49.3830315,7.115 C49.3330315,6.865 49.2930315,6.54 49.2680315,6.135 L50.4430315,6.135 L50.4430315,5.66 L49.2380315,5.66 C49.2180315,5.32 49.2080315,4.93 49.2080315,4.5 L48.7030315,4.5 C48.7030315,4.915 48.7130315,5.3 48.7330315,5.66 L47.6930315,5.66 L47.6930315,5.34 L48.5380315,5.34 L48.5380315,4.87 L47.6930315,4.87 L47.6930315,4.505 L47.1830315,4.505 L47.1830315,4.87 L46.2680315,4.87 L46.2680315,5.34 L47.1830315,5.34 L47.1830315,5.66 L46.0080315,5.66 L46.0080315,6.135 L48.7630315,6.135 C48.7980315,6.56 48.8530315,6.925 48.9230315,7.235 C48.9730315,7.48 49.0330315,7.705 49.1030315,7.905 C48.8630315,8.265 48.5680315,8.54 48.2280315,8.73 L48.5130315,9.15 Z M49.9130315,5.55 L50.2980315,5.28 C50.1630315,5.07 49.9680315,4.825 49.7180315,4.545 L49.3230315,4.795 C49.5730315,5.075 49.7680315,5.325 49.9130315,5.55 Z M47.8180315,9.13 L47.8180315,8.58 C48.0680315,8.55 48.3080315,8.52 48.5380315,8.49 L48.5380315,8.04 C48.3130315,8.07 48.0730315,8.095 47.8180315,8.12 L47.8180315,7.835 L48.5130315,7.835 L48.5130315,7.4 L47.8180315,7.4 L47.8180315,7.1 L47.3080315,7.1 L47.3080315,7.4 L46.8830315,7.4 C46.9730315,7.255 47.0630315,7.095 47.1480315,6.925 L48.5630315,6.925 L48.5630315,6.465 L47.3380315,6.465 C47.3630315,6.395 47.3880315,6.32 47.4180315,6.245 L46.9230315,6.15 C46.8880315,6.255 46.8530315,6.36 46.8130315,6.465 L46.1580315,6.465 L46.1580315,6.925 L46.6180315,6.925 C46.5180315,7.12 46.4080315,7.285 46.2980315,7.42 L46.4030315,7.835 L47.3080315,7.835 L47.3080315,8.165 C46.9580315,8.195 46.5830315,8.22 46.1880315,8.24 L46.2480315,8.72 C46.6130315,8.69 46.9680315,8.66 47.3080315,8.63 L47.3080315,9.13 L47.8180315,9.13 Z" id="Android下载备份" fill="#FFFFFF" fill-rule="nonzero"></path>
            </g>
        </g>
    </g>
</svg>