<?xml version="1.0" encoding="UTF-8"?>
<svg width="52px" height="16px" viewBox="0 0 52 16" version="1.1" xmlns="http://www.w3.org/2000/svg" xmlns:xlink="http://www.w3.org/1999/xlink">
    <title>编组 7</title>
    <defs>
        <filter id="filter-1">
            <feColorMatrix in="SourceGraphic" type="matrix" values="0 0 0 0 0.847000 0 0 0 0 0.847000 0 0 0 0 0.847000 0 0 0 1.000000 0"></feColorMatrix>
        </filter>
    </defs>
    <g id="页面-1" stroke="none" stroke-width="1" fill="none" fill-rule="evenodd">
        <g id="手机备份-2" transform="translate(-180.000000, -145.000000)">
            <g id="编组-2" transform="translate(181.000000, 126.000000)">
                <g id="编组-7" transform="translate(0.000000, 20.000000)">
                    <rect id="矩形备份-2" stroke="#FFFFFF" stroke-width="0.5" x="0" y="0" width="50" height="14" rx="4"></rect>
                    <path d="M15.625,9 L15.95,8.105 L17.445,8.105 L17.77,9 L18.395,9 L17.03,5.43 L16.365,5.43 L15,9 L15.625,9 Z M17.27,7.625 L16.125,7.625 L16.69,6.06 L16.71,6.06 L17.27,7.625 Z M19.2480315,9.99 L19.2480315,8.645 C19.4580315,8.925 19.7180315,9.07 20.0180315,9.07 C20.3880315,9.07 20.6830315,8.935 20.8930315,8.665 C21.0880315,8.415 21.1880315,8.1 21.1880315,7.72 C21.1880315,7.32 21.0880315,7 20.8880315,6.75 C20.6680315,6.48 20.3680315,6.345 19.9880315,6.345 C19.6480315,6.345 19.3880315,6.46 19.2080315,6.69 L19.2080315,6.415 L18.6780315,6.415 L18.6780315,9.99 L19.2480315,9.99 Z M19.8830315,8.61 C19.6980315,8.61 19.5480315,8.535 19.4280315,8.385 C19.2930315,8.22 19.2280315,8 19.2280315,7.73 L19.2280315,7.69 C19.2280315,7.43 19.2780315,7.225 19.3880315,7.07 C19.5080315,6.89 19.6780315,6.805 19.9030315,6.805 C20.1530315,6.805 20.3380315,6.895 20.4580315,7.075 C20.5530315,7.225 20.6030315,7.44 20.6030315,7.72 C20.6030315,8 20.5480315,8.215 20.4430315,8.365 C20.3230315,8.525 20.1330315,8.61 19.8830315,8.61 Z M22.2410631,9.99 L22.2410631,8.645 C22.4510631,8.925 22.7110631,9.07 23.0110631,9.07 C23.3810631,9.07 23.6760631,8.935 23.8860631,8.665 C24.0810631,8.415 24.1810631,8.1 24.1810631,7.72 C24.1810631,7.32 24.0810631,7 23.8810631,6.75 C23.6610631,6.48 23.3610631,6.345 22.9810631,6.345 C22.6410631,6.345 22.3810631,6.46 22.2010631,6.69 L22.2010631,6.415 L21.6710631,6.415 L21.6710631,9.99 L22.2410631,9.99 Z M22.8760631,8.61 C22.6910631,8.61 22.5410631,8.535 22.4210631,8.385 C22.2860631,8.22 22.2210631,8 22.2210631,7.73 L22.2210631,7.69 C22.2210631,7.43 22.2710631,7.225 22.3810631,7.07 C22.5010631,6.89 22.6710631,6.805 22.8960631,6.805 C23.1460631,6.805 23.3310631,6.895 23.4510631,7.075 C23.5460631,7.225 23.5960631,7.44 23.5960631,7.72 C23.5960631,8 23.5410631,8.215 23.4360631,8.365 C23.3160631,8.525 23.1260631,8.61 22.8760631,8.61 Z M27.6821262,9.07 C28.1371262,9.07 28.4921262,8.975 28.7421262,8.795 C28.9921262,8.61 29.1171262,8.355 29.1171262,8.035 C29.1171262,7.705 28.9621262,7.45 28.6521262,7.265 C28.5121262,7.185 28.2021262,7.065 27.7171262,6.915 C27.3871262,6.81 27.1821262,6.735 27.1071262,6.695 C26.9371262,6.605 26.8571262,6.48 26.8571262,6.33 C26.8571262,6.16 26.9271262,6.035 27.0771262,5.96 C27.1971262,5.895 27.3671262,5.865 27.5921262,5.865 C27.8521262,5.865 28.0521262,5.91 28.1821262,6.01 C28.3121262,6.105 28.4071262,6.265 28.4571262,6.485 L29.0371262,6.485 C29.0021262,6.095 28.8571262,5.805 28.6071262,5.62 C28.3721262,5.445 28.0421262,5.36 27.6221262,5.36 C27.2371262,5.36 26.9221262,5.445 26.6721262,5.62 C26.4021262,5.8 26.2721262,6.05 26.2721262,6.365 C26.2721262,6.68 26.4071262,6.92 26.6821262,7.085 C26.7871262,7.145 27.0621262,7.245 27.5021262,7.385 C27.8971262,7.505 28.1271262,7.585 28.1971262,7.62 C28.4171262,7.73 28.5321262,7.88 28.5321262,8.07 C28.5321262,8.22 28.4521262,8.335 28.3021262,8.425 C28.1521262,8.51 27.9421262,8.555 27.6821262,8.555 C27.3871262,8.555 27.1721262,8.5 27.0321262,8.4 C26.8771262,8.285 26.7821262,8.09 26.7421262,7.82 L26.1621262,7.82 C26.1871262,8.275 26.3521262,8.605 26.6521262,8.815 C26.8971262,8.985 27.2421262,9.07 27.6821262,9.07 Z M30.8701577,9 L30.8701577,8.53 L30.5301577,8.53 C30.4701577,8.53 30.4301577,8.515 30.4001577,8.485 C30.3701577,8.45 30.3601577,8.405 30.3601577,8.345 L30.3601577,6.885 L30.9351577,6.885 L30.9351577,6.415 L30.3601577,6.415 L30.3601577,5.58 L29.7901577,5.815 L29.7901577,6.415 L29.3251577,6.415 L29.3251577,6.885 L29.7901577,6.885 L29.7901577,8.345 C29.7901577,8.555 29.8401577,8.71 29.9401577,8.82 C30.0451577,8.94 30.2101577,9 30.4351577,9 L30.8701577,9 Z M32.5431892,9.07 C32.9331892,9.07 33.2531892,8.94 33.4931892,8.68 C33.7231892,8.43 33.8431892,8.105 33.8431892,7.71 C33.8431892,7.31 33.7231892,6.985 33.4881892,6.73 C33.2481892,6.47 32.9331892,6.345 32.5431892,6.345 C32.1481892,6.345 31.8331892,6.47 31.5981892,6.73 C31.3581892,6.985 31.2431892,7.31 31.2431892,7.71 C31.2431892,8.105 31.3581892,8.43 31.5931892,8.68 C31.8331892,8.94 32.1481892,9.07 32.5431892,9.07 Z M32.5431892,8.605 C32.3031892,8.605 32.1231892,8.51 31.9931892,8.325 C31.8831892,8.165 31.8281892,7.96 31.8281892,7.71 C31.8281892,7.46 31.8831892,7.25 31.9931892,7.09 C32.1231892,6.9 32.3031892,6.81 32.5431892,6.81 C32.7781892,6.81 32.9631892,6.9 33.0931892,7.09 C33.2031892,7.25 33.2631892,7.46 33.2631892,7.71 C33.2631892,7.955 33.2031892,8.16 33.0931892,8.325 C32.9631892,8.51 32.7781892,8.605 32.5431892,8.605 Z M34.8912208,9 L34.8912208,7.63 C34.8912208,7.41 34.9562208,7.235 35.0962208,7.1 C35.2162208,6.98 35.3512208,6.925 35.5012208,6.925 C35.6212208,6.925 35.7412208,6.94 35.8712208,6.98 L35.8712208,6.41 C35.7812208,6.365 35.6712208,6.345 35.5462208,6.345 C35.3862208,6.345 35.2512208,6.39 35.1362208,6.485 C35.0412208,6.555 34.9612208,6.655 34.8912208,6.785 L34.8912208,6.415 L34.3262208,6.415 L34.3262208,9 L34.8912208,9 Z M37.3042523,9.07 C37.6492523,9.07 37.9342523,8.97 38.1642523,8.775 C38.3442523,8.615 38.4642523,8.41 38.5242523,8.17 L37.9542523,8.17 C37.8842523,8.315 37.8092523,8.42 37.7242523,8.485 C37.6142523,8.565 37.4742523,8.605 37.2992523,8.605 C37.0942523,8.605 36.9342523,8.54 36.8242523,8.415 C36.7142523,8.29 36.6492523,8.105 36.6292523,7.865 L38.5642523,7.865 C38.5642523,7.4 38.4592523,7.035 38.2542523,6.775 C38.0292523,6.485 37.7042523,6.345 37.2792523,6.345 C36.8942523,6.345 36.5892523,6.475 36.3692523,6.74 C36.1392523,7 36.0292523,7.32 36.0292523,7.705 C36.0292523,8.135 36.1492523,8.47 36.3892523,8.715 C36.6142523,8.95 36.9192523,9.07 37.3042523,9.07 Z M37.9692523,7.435 L36.6392523,7.435 C36.6742523,7.23 36.7442523,7.075 36.8492523,6.97 C36.9592523,6.86 37.1042523,6.81 37.2942523,6.81 C37.6942523,6.81 37.9192523,7.015 37.9692523,7.435 Z" id="AppStore" fill="#EFF1F4" fill-rule="nonzero"></path>
                    <g filter="url(#filter-1)" id="apple">
                        <g transform="translate(5.000000, 2.500000)">
                            <rect id="矩形" fill="#000000" fill-rule="nonzero" opacity="0" x="2" y="0" width="8" height="8"></rect>
                            <path d="M5.17088371,4.76796244 C5.17088371,3.79593108 6.00491002,3.38990222 6.00491002,3.38990222 C6.00491002,3.38990222 5.46783333,2.66209845 4.67172651,2.66209845 C4.00072486,2.66209845 3.75336539,2.97204141 3.23495688,2.97204141 C2.7203306,2.97204141 2.43505974,2.66209845 1.80955013,2.66209845 C1.01345142,2.66209845 0,3.41931124 0,4.76332183 C0,6.56846844 1.2889387,8.11111111 2.00288932,8.11111111 C2.33015347,8.11111111 2.71635399,7.80990106 3.26021764,7.80985338 C3.79100951,7.80977392 4.11949661,8.11089656 4.47838733,8.11089656 C4.80441233,8.11089656 5.10388883,7.94700543 5.57776907,7.33700462 C6.05163311,6.7270197 6.22222222,6.20210719 6.22222222,6.20210719 C6.11101494,6.16240779 5.17088371,5.73996996 5.17088371,4.76796244 Z M4.52707038,1.14656834 C4.52707038,1.09714274 4.52443821,1.04832107 4.51993517,1 C3.67576892,1.05222267 3.00748853,1.74008865 3.00748853,2.58153156 C3.00748853,2.63095715 3.0101288,2.67980267 3.01463185,2.72806811 C3.85879809,2.67588517 4.52707038,1.9879874 4.52707038,1.14656834 Z" id="形状" fill="#FFFFFF" fill-rule="nonzero"></path>
                        </g>
                    </g>
                </g>
            </g>
        </g>
    </g>
</svg>