<svg width="39" height="17" xmlns="http://www.w3.org/2000/svg"><g fill="none" fill-rule="evenodd"><path d="M2.304 5.24V3.608H.672V5.24h1.632Zm0 9.76V6.888H.672V15h1.632Zm2.83 0V8.152h.033L7.663 15h1.536V3.608H7.567v6.864h-.032L5.07 3.608H3.503V15h1.632Zm7.951.096c.363 0 .702-.072 1.016-.216.315-.144.59-.339.824-.584.235-.245.419-.525.552-.84.134-.315.2-.648.2-1v-.704h-1.632v.56c0 .224-.032.41-.096.56a.976.976 0 0 1-.24.352 1.026 1.026 0 0 1-.344.184 1.185 1.185 0 0 1-.344.056c-.373 0-.632-.112-.776-.336-.144-.224-.216-.501-.216-.832V6.472c0-.384.067-.701.2-.952.134-.25.403-.376.808-.376.31 0 .555.117.736.352.182.235.272.512.272.832v.544h1.632v-.64c0-.395-.066-.76-.2-1.096a2.672 2.672 0 0 0-.552-.872c-.48-.501-1.104-.752-1.872-.752-.394 0-.754.067-1.08.2a2.448 2.448 0 0 0-1.384 1.384c-.128.32-.192.667-.192 1.04v6.272c0 .523.083.952.248 1.288.166.336.376.61.632.824.256.213.544.363.864.448.32.085.635.128.944.128Zm6.383 0c.363 0 .704-.07 1.024-.208a2.715 2.715 0 0 0 1.416-1.416c.133-.315.2-.659.2-1.032V3.608h-1.632v8.672c0 .405-.096.704-.288.896a.977.977 0 0 1-.72.288.977.977 0 0 1-.72-.288c-.192-.192-.288-.49-.288-.896V3.608h-1.632v8.832c0 .373.07.717.208 1.032.139.315.33.595.576.84.245.245.525.437.84.576.315.139.653.208 1.016.208Z" fill="#FFF" fill-rule="nonzero"/><g transform="translate(26 1)"><path d="m2.728 11 .21-1.071h.973L4.121 11h.714L3.722 6.016h-.595L2.014 11h.714Zm1.05-1.743h-.714l.35-1.806h.014l.35 1.806ZM5.821 11V9.054h.364c.266 0 .481-.046.644-.136.164-.091.294-.219.392-.382.084-.135.14-.28.165-.434.026-.154.038-.343.038-.567 0-.299-.023-.535-.07-.71a1.068 1.068 0 0 0-.252-.459.994.994 0 0 0-.406-.273 1.592 1.592 0 0 0-.518-.077h-1.07V11h.713Zm.343-2.618h-.343V6.688h.371c.14 0 .248.021.322.063.075.042.131.103.168.182a.72.72 0 0 1 .063.277 7.503 7.503 0 0 1-.003.675.64.64 0 0 1-.067.259.396.396 0 0 1-.175.175.73.73 0 0 1-.336.063ZM8.593 11V9.054h.364c.266 0 .48-.046.644-.136.163-.091.294-.219.392-.382.084-.135.139-.28.164-.434.026-.154.039-.343.039-.567 0-.299-.024-.535-.07-.71a1.068 1.068 0 0 0-.252-.459.994.994 0 0 0-.406-.273 1.592 1.592 0 0 0-.518-.077H7.879V11h.714Zm.343-2.618h-.343V6.688h.37c.14 0 .248.021.323.063.074.042.13.103.168.182a.72.72 0 0 1 .063.277 7.503 7.503 0 0 1-.004.675.64.64 0 0 1-.066.259.396.396 0 0 1-.175.175.73.73 0 0 1-.336.063Z" fill="#FFF" fill-rule="nonzero"/><rect stroke="#FFF" stroke-width=".7" y="3" width="12" height="11" rx="2"/></g></g></svg>