<?xml version="1.0" encoding="UTF-8"?>
<svg width="39px" height="17px" viewBox="0 0 39 17" version="1.1" xmlns="http://www.w3.org/2000/svg" xmlns:xlink="http://www.w3.org/1999/xlink">
    <title>编组 4</title>
    <g id="页面-1" stroke="none" stroke-width="1" fill="none" fill-rule="evenodd">
        <g id="手机备份-2" transform="translate(-12.000000, -6.000000)">
            <g id="编组-4" transform="translate(12.000000, 6.000000)">
                <path d="M2.304,5.24 L2.304,3.608 L0.672,3.608 L0.672,5.24 L2.304,5.24 Z M2.304,15 L2.304,6.888 L0.672,6.888 L0.672,15 L2.304,15 Z M5.134624,15 L5.134624,8.152 L5.166624,8.152 L7.662624,15 L9.198624,15 L9.198624,3.608 L7.566624,3.608 L7.566624,10.472 L7.534624,10.472 L5.070624,3.608 L3.502624,3.608 L3.502624,15 L5.134624,15 Z M13.085248,15.096 C13.4479147,15.096 13.7865813,15.024 14.101248,14.88 C14.4159147,14.736 14.6905813,14.5413333 14.925248,14.296 C15.1599147,14.0506667 15.3439147,13.7706667 15.477248,13.456 C15.6105813,13.1413333 15.677248,12.808 15.677248,12.456 L15.677248,12.456 L15.677248,11.752 L14.045248,11.752 L14.045248,12.312 C14.045248,12.536 14.013248,12.7226667 13.949248,12.872 C13.885248,13.0213333 13.805248,13.1386667 13.709248,13.224 C13.6025813,13.3093333 13.4879147,13.3706667 13.365248,13.408 C13.2425813,13.4453333 13.1279147,13.464 13.021248,13.464 C12.6479147,13.464 12.389248,13.352 12.245248,13.128 C12.101248,12.904 12.029248,12.6266667 12.029248,12.296 L12.029248,12.296 L12.029248,6.472 C12.029248,6.088 12.0959147,5.77066667 12.229248,5.52 C12.3625813,5.26933333 12.6319147,5.144 13.037248,5.144 C13.3465813,5.144 13.5919147,5.26133333 13.773248,5.496 C13.9545813,5.73066667 14.045248,6.008 14.045248,6.328 L14.045248,6.328 L14.045248,6.872 L15.677248,6.872 L15.677248,6.232 C15.677248,5.83733333 15.6105813,5.472 15.477248,5.136 C15.3439147,4.8 15.1599147,4.50933333 14.925248,4.264 C14.445248,3.76266667 13.821248,3.512 13.053248,3.512 C12.6585813,3.512 12.2985813,3.57866667 11.973248,3.712 C11.6479147,3.84533333 11.3679147,4.02933333 11.133248,4.264 C10.8985813,4.49866667 10.717248,4.776 10.589248,5.096 C10.461248,5.416 10.397248,5.76266667 10.397248,6.136 L10.397248,6.136 L10.397248,12.408 C10.397248,12.9306667 10.4799147,13.36 10.645248,13.696 C10.8105813,14.032 11.021248,14.3066667 11.277248,14.52 C11.533248,14.7333333 11.821248,14.8826667 12.141248,14.968 C12.461248,15.0533333 12.7759147,15.096 13.085248,15.096 Z M19.467872,15.096 C19.8305387,15.096 20.171872,15.0266667 20.491872,14.888 C20.811872,14.7493333 21.0945387,14.5573333 21.339872,14.312 C21.5852053,14.0666667 21.7745387,13.7866667 21.907872,13.472 C22.0412053,13.1573333 22.107872,12.8133333 22.107872,12.44 L22.107872,12.44 L22.107872,3.608 L20.475872,3.608 L20.475872,12.28 C20.475872,12.6853333 20.379872,12.984 20.187872,13.176 C19.995872,13.368 19.755872,13.464 19.467872,13.464 C19.179872,13.464 18.939872,13.368 18.747872,13.176 C18.555872,12.984 18.459872,12.6853333 18.459872,12.28 L18.459872,12.28 L18.459872,3.608 L16.827872,3.608 L16.827872,12.44 C16.827872,12.8133333 16.8972053,13.1573333 17.035872,13.472 C17.1745387,13.7866667 17.3665387,14.0666667 17.611872,14.312 C17.8572053,14.5573333 18.1372053,14.7493333 18.451872,14.888 C18.7665387,15.0266667 19.1052053,15.096 19.467872,15.096 Z" id="iNCU" fill="#FFFFFF" fill-rule="nonzero"></path>
                <g id="编组-5" transform="translate(26.000000, 1.000000)">
                    <path d="M2.728,11 L2.938,9.929 L3.911,9.929 L4.121,11 L4.835,11 L3.722,6.016 L3.127,6.016 L2.014,11 L2.728,11 Z M3.778,9.257 L3.064,9.257 L3.414,7.451 L3.428,7.451 L3.778,9.257 Z M5.821398,11 L5.821398,9.054 L6.185398,9.054 C6.451398,9.054 6.66606467,9.0085 6.829398,8.9175 C6.99273133,8.8265 7.123398,8.69933333 7.221398,8.536 C7.305398,8.40066667 7.36023133,8.256 7.385898,8.102 C7.41156467,7.948 7.424398,7.759 7.424398,7.535 C7.424398,7.23633333 7.40106467,6.9995 7.354398,6.8245 C7.30773133,6.6495 7.22373133,6.49666667 7.102398,6.366 C6.98106467,6.23533333 6.84573133,6.14433333 6.696398,6.093 C6.54706467,6.04166667 6.374398,6.016 6.178398,6.016 L6.178398,6.016 L5.107398,6.016 L5.107398,11 L5.821398,11 Z M6.164398,8.382 L5.821398,8.382 L5.821398,6.688 L6.192398,6.688 C6.332398,6.688 6.43973133,6.709 6.514398,6.751 C6.58906467,6.793 6.64506467,6.85366667 6.682398,6.933 C6.71973133,7.01233333 6.74073133,7.1045 6.745398,7.2095 C6.75006467,7.3145 6.752398,7.42533333 6.752398,7.542 C6.752398,7.668 6.748898,7.78233333 6.741898,7.885 C6.734898,7.98766667 6.71273133,8.074 6.675398,8.144 C6.63806467,8.21866667 6.57973133,8.277 6.500398,8.319 C6.42106467,8.361 6.30906467,8.382 6.164398,8.382 L6.164398,8.382 Z M8.592796,11 L8.592796,9.054 L8.956796,9.054 C9.222796,9.054 9.43746267,9.0085 9.600796,8.9175 C9.76412933,8.8265 9.894796,8.69933333 9.992796,8.536 C10.076796,8.40066667 10.1316293,8.256 10.157296,8.102 C10.1829627,7.948 10.195796,7.759 10.195796,7.535 C10.195796,7.23633333 10.1724627,6.9995 10.125796,6.8245 C10.0791293,6.6495 9.99512933,6.49666667 9.873796,6.366 C9.75246267,6.23533333 9.61712933,6.14433333 9.467796,6.093 C9.31846267,6.04166667 9.145796,6.016 8.949796,6.016 L8.949796,6.016 L7.878796,6.016 L7.878796,11 L8.592796,11 Z M8.935796,8.382 L8.592796,8.382 L8.592796,6.688 L8.963796,6.688 C9.103796,6.688 9.21112933,6.709 9.285796,6.751 C9.36046267,6.793 9.41646267,6.85366667 9.453796,6.933 C9.49112933,7.01233333 9.51212933,7.1045 9.516796,7.2095 C9.52146267,7.3145 9.523796,7.42533333 9.523796,7.542 C9.523796,7.668 9.520296,7.78233333 9.513296,7.885 C9.506296,7.98766667 9.48412933,8.074 9.446796,8.144 C9.40946267,8.21866667 9.35112933,8.277 9.271796,8.319 C9.19246267,8.361 9.08046267,8.382 8.935796,8.382 L8.935796,8.382 Z" id="APP" fill="#FFFFFF" fill-rule="nonzero"></path>
                    <rect id="矩形" stroke="#FFFFFF" stroke-width="0.7" x="0" y="3" width="12" height="11" rx="2"></rect>
                </g>
            </g>
        </g>
    </g>
</svg>