<svg width="122" height="56" xmlns="http://www.w3.org/2000/svg"><g fill-rule="nonzero" fill="none"><path d="M14.302 18.458c1.012 0 1.84-.322 2.53-.966.69-.644 1.058-1.518 1.058-2.53 0-1.012-.368-1.84-1.012-2.484-.69-.644-1.564-.966-2.576-.966s-1.84.322-2.53.966c-.69.644-1.012 1.472-1.012 2.484s.322 1.84 1.012 2.53c.69.644 1.518.966 2.53.966ZM16.924 45V21.218H11.68V45h5.244Zm11.818 0V20.988h.184L45.348 45h5.244V12.156h-5.428v23.69h-.184l-16.238-23.69H23.36V45h5.382Zm42.132.644c3.542 0 6.578-1.012 9.108-3.036 2.714-2.162 4.416-5.152 5.152-9.016H79.89c-.644 2.484-1.748 4.37-3.312 5.612-1.472 1.104-3.404 1.702-5.75 1.702-3.588 0-6.256-1.15-7.958-3.358-1.564-2.07-2.346-5.06-2.346-8.924 0-3.772.782-6.716 2.392-8.832 1.748-2.392 4.324-3.542 7.774-3.542 2.3 0 4.186.46 5.658 1.472 1.518 1.012 2.53 2.576 3.082 4.738h5.244c-.506-3.312-1.932-5.98-4.324-7.912-2.484-2.024-5.704-3.036-9.568-3.036-5.244 0-9.246 1.702-12.006 5.198-2.438 3.036-3.634 7.038-3.634 11.914 0 4.968 1.15 8.924 3.496 11.868 2.668 3.404 6.762 5.152 12.236 5.152Zm32.472 0c4.324 0 7.682-1.104 10.074-3.312 2.392-2.254 3.588-5.52 3.588-9.798V12.156h-5.382v20.47c0 2.852-.69 4.922-1.978 6.302-1.334 1.334-3.45 2.024-6.302 2.024-2.898 0-5.014-.69-6.302-2.024-1.334-1.38-1.978-3.45-1.978-6.302v-20.47h-5.382v20.378c0 4.278 1.196 7.544 3.634 9.844 2.3 2.162 5.658 3.266 10.028 3.266Z" fill="#202043"/><path d="M16.06 52.6a5.5 5.5 0 0 0 .98-.08 1.85 1.85 0 0 0 .75-.3 1.41 1.41 0 0 0 .48-.63c.113-.273.17-.63.17-1.07V40.08c0-.613-.12-1.053-.36-1.32-.24-.267-.667-.4-1.28-.4h-6.34c.027-.24.047-.48.06-.72.013-.24.033-.487.06-.74h8.04c.267 0 .47-.07.61-.21.14-.14.21-.323.21-.55 0-.227-.07-.41-.21-.55-.14-.14-.343-.21-.61-.21h-7.94c.027-.187.043-.377.05-.57.007-.193.023-.383.05-.57.027-.267-.02-.46-.14-.58-.12-.12-.313-.193-.58-.22-.507-.04-.78.213-.82.76l-.1 1.18h-7.8c-.293 0-.497.07-.61.21-.113.14-.17.323-.17.55 0 .227.057.41.17.55.113.14.317.21.61.21h7.7l-.12 1.46H3.34c-.613 0-1.047.133-1.3.4-.253.267-.38.707-.38 1.32V51.7c0 .587.26.88.78.88.507 0 .76-.293.76-.88V40.22c0-.093.027-.177.08-.25.053-.073.113-.11.18-.11h13.16c.067 0 .13.033.19.1s.09.153.09.26v10.16c0 .227-.037.387-.11.48-.073.093-.203.167-.39.22-.16.053-.417.05-.77-.01-.353-.06-.837-.197-1.45-.41-.347-.107-.63-.15-.85-.13-.22.02-.377.143-.47.37-.12.293-.133.54-.04.74.093.2.38.373.86.52.453.147.88.257 1.28.33.4.073.767.11 1.1.11Zm-6-.14c.307 0 .51-.083.61-.25.1-.167.15-.39.15-.67v-3.56h5.16c.28 0 .477-.067.59-.2.113-.133.17-.313.17-.54 0-.24-.057-.43-.17-.57-.113-.14-.31-.21-.59-.21h-5.16v-1.88h4.54c.28 0 .48-.063.6-.19s.18-.317.18-.57c0-.227-.06-.41-.18-.55-.12-.14-.32-.21-.6-.21h-2.1a.38.38 0 0 0 .07-.1c.02-.04.043-.08.07-.12.08-.133.147-.25.2-.35l.17-.32c.06-.113.123-.24.19-.38s.147-.317.24-.53c.107-.293.15-.537.13-.73-.02-.193-.143-.343-.37-.45-.48-.213-.853.007-1.12.66-.12.293-.23.537-.33.73-.1.193-.243.437-.43.73-.227.36-.3.647-.22.86H8.4a.48.48 0 0 0 .09-.37 1.655 1.655 0 0 0-.17-.49c-.133-.293-.263-.57-.39-.83s-.283-.55-.47-.87c-.133-.227-.283-.383-.45-.47-.167-.087-.383-.063-.65.07a.596.596 0 0 0-.34.42c-.04.187.027.447.2.78.16.307.283.553.37.74.087.187.197.427.33.72a.9.9 0 0 0 .14.3h-2.3c-.267 0-.46.07-.58.21-.12.14-.18.323-.18.55 0 .507.253.76.76.76h4.52v1.88H4.16c-.28 0-.48.07-.6.21-.12.14-.18.33-.18.57 0 .227.06.407.18.54.12.133.32.2.6.2h5.12v3.56c0 .28.043.503.13.67.087.167.303.25.65.25Zm12.16.01c.253.033.6-.083 1.04-.35a16.368 16.368 0 0 0 2.44-1.8c.8-.707 1.547-1.49 2.24-2.35a20.903 20.903 0 0 0 1.87-2.74c.553-.967.997-1.957 1.33-2.97a23.438 23.438 0 0 0 2.85 5.24 24.777 24.777 0 0 0 3.91 4.28c.48.373.85.57 1.11.59.26.02.483-.097.67-.35.173-.24.21-.477.11-.71-.1-.233-.383-.523-.85-.87-1.587-1.213-3-2.723-4.24-4.53-1.24-1.807-2.207-3.957-2.9-6.45h7.12c.347 0 .58-.073.7-.22.12-.147.18-.353.18-.62 0-.24-.06-.433-.18-.58-.12-.147-.353-.22-.7-.22H31.8V34.2c0-.333-.06-.567-.18-.7s-.32-.2-.6-.2c-.267 0-.467.067-.6.2-.133.133-.2.367-.2.7v3.62h-7.28c-.333 0-.57.073-.71.22-.14.147-.21.34-.21.58 0 .267.07.473.21.62.14.147.377.22.71.22h7.22c-.107 1-.36 2.023-.76 3.07-.4 1.047-.93 2.06-1.59 3.04s-1.44 1.907-2.34 2.78c-.9.873-1.903 1.643-3.01 2.31-.387.227-.653.44-.8.64-.147.2-.153.44-.02.72.133.267.327.417.58.45Zm21.2-12.65c.24 0 .43-.073.57-.22.14-.147.21-.353.21-.62V37.2c0-.36.133-.54.4-.54h13.38c.573 0 .86.173.86.52 0 .28-.12.647-.36 1.1-.2.387-.287.677-.26.87.027.193.153.357.38.49.28.16.5.197.66.11.16-.087.353-.343.58-.77a5.61 5.61 0 0 0 .36-.99c.093-.353.14-.683.14-.99 0-1.24-.693-1.86-2.08-1.86h-6.22l-.25-.71a4.622 4.622 0 0 0-.21-.51c-.147-.347-.303-.55-.47-.61-.167-.06-.383-.037-.65.07-.227.107-.363.247-.41.42-.047.173.017.44.19.8.04.093.083.183.13.27.047.087.083.177.11.27h-5.96c-.56 0-1.013.187-1.36.56-.347.373-.52.887-.52 1.54v1.78c0 .267.057.467.17.6.113.133.317.2.61.2Zm7.18 12.62c.853 0 1.587-.27 2.2-.81.613-.54 1.093-1.383 1.44-2.53.08-.253.14-.56.18-.92.04-.36.067-.737.08-1.13.013-.393.007-.78-.02-1.16-.027-.38-.06-.717-.1-1.01l-.08-.32a.174.174 0 0 1 .09-.05.174.174 0 0 0 .09-.05c.72 1.413 1.483 2.627 2.29 3.64a19.151 19.151 0 0 0 2.69 2.76c.693.533 1.187.607 1.48.22.187-.253.253-.493.2-.72-.053-.227-.253-.467-.6-.72a16.083 16.083 0 0 1-1.45-1.17 13.134 13.134 0 0 1-1.26-1.32c-.393-.473-.763-.99-1.11-1.55-.347-.56-.68-1.173-1-1.84a22.278 22.278 0 0 0 2.72-1.86c.32-.253.493-.5.52-.74.027-.24-.08-.453-.32-.64a.782.782 0 0 0-.57-.13c-.193.033-.443.177-.75.43-.52.44-1.057.847-1.61 1.22a17.6 17.6 0 0 1-1.85 1.08 7.007 7.007 0 0 0-.75-1.38 12.606 12.606 0 0 0-1.23-1.48c.333-.227.64-.453.92-.68h4.06c.64 0 .96-.26.96-.78 0-.28-.083-.473-.25-.58-.167-.107-.403-.16-.71-.16H45.7c-.32 0-.557.06-.71.18-.153.12-.23.32-.23.6 0 .267.077.457.23.57.153.113.39.17.71.17h4.56a36.6 36.6 0 0 1-3.33 1.9c-1.14.573-2.21 1.013-3.21 1.32-.44.147-.713.317-.82.51a.74.74 0 0 0-.04.63c.107.293.263.457.47.49.207.033.503-.023.89-.17a30.85 30.85 0 0 0 3.35-1.43c1.02-.513 2.03-1.09 3.03-1.73.307.347.58.68.82 1a31.998 31.998 0 0 1-3.81 2.45c-.673.367-1.347.703-2.02 1.01-.673.307-1.33.573-1.97.8-.733.253-1.02.627-.86 1.12.107.293.263.457.47.49.207.033.517-.023.93-.17a28.86 28.86 0 0 0 2.11-.87c.713-.327 1.417-.68 2.11-1.06.693-.38 1.363-.777 2.01-1.19.647-.413 1.257-.84 1.83-1.28.12.213.223.427.31.64.087.213.163.427.23.64a40.621 40.621 0 0 1-2.67 1.94c-.847.56-1.66 1.05-2.44 1.47a23.85 23.85 0 0 1-4.43 1.85c-.413.12-.693.257-.84.41-.147.153-.187.37-.12.65.093.547.547.687 1.36.42a42.031 42.031 0 0 0 2.63-1.02c.807-.347 1.583-.72 2.33-1.12.747-.4 1.48-.837 2.2-1.31.72-.473 1.467-1.01 2.24-1.61a7.587 7.587 0 0 1-.24 2.14c-.187.747-.467 1.343-.84 1.79-.373.447-.833.67-1.38.67-.32 0-.653-.047-1-.14a8.358 8.358 0 0 1-1.16-.42c-.32-.133-.57-.163-.75-.09-.18.073-.31.223-.39.45-.107.24-.12.443-.04.61.08.167.293.323.64.47.893.4 1.807.6 2.74.6Zm28.64-.38c.64 0 1.087-.14 1.34-.42.253-.28.38-.74.38-1.38V36.18c0-.64-.127-1.103-.38-1.39-.253-.287-.7-.43-1.34-.43H65.46c-.653 0-1.097.143-1.33.43-.233.287-.35.75-.35 1.39v14.08c0 .64.117 1.1.35 1.38.233.28.677.42 1.33.42h13.78Zm-.02-1.54H65.46c-.107 0-.16-.1-.16-.3V36.18c0-.173.053-.26.16-.26h13.76c.133 0 .2.087.2.26v14.04c0 .2-.067.3-.2.3Zm-2.16-11.64c.267 0 .457-.07.57-.21.113-.14.17-.31.17-.51 0-.227-.057-.4-.17-.52-.113-.12-.303-.18-.57-.18h-9.44c-.293 0-.493.06-.6.18-.107.12-.16.293-.16.52 0 .2.053.37.16.51.107.14.307.21.6.21h9.44Zm-10.6 11.25c.173-.007.427-.13.76-.37a14.875 14.875 0 0 0 1.77-1.46 6.524 6.524 0 0 0 1.15-1.5c.293-.533.503-1.13.63-1.79.127-.66.197-1.437.21-2.33h2.18v3.8c0 .68.037 1.227.11 1.64.073.413.21.733.41.96.2.227.483.38.85.46.367.08.843.12 1.43.12.6 0 1.093-.037 1.48-.11.387-.073.69-.24.91-.5.22-.26.367-.64.44-1.14.073-.5.103-1.177.09-2.03 0-.307-.05-.55-.15-.73-.1-.18-.29-.27-.57-.27-.28 0-.467.08-.56.24-.093.16-.14.4-.14.72.013.587.007 1.04-.02 1.36-.027.32-.083.557-.17.71a.557.557 0 0 1-.41.28 4.38 4.38 0 0 1-.74.05c-.32 0-.577-.01-.77-.03-.193-.02-.34-.087-.44-.2-.1-.113-.167-.283-.2-.51a7.024 7.024 0 0 1-.05-.96v-3.86h3.1c.28 0 .48-.06.6-.18s.18-.3.18-.54c0-.213-.057-.383-.17-.51-.113-.127-.31-.19-.59-.19H66.7c-.267 0-.457.063-.57.19-.113.127-.17.297-.17.51 0 .24.057.42.17.54.113.12.303.18.57.18h2.8c-.04.813-.11 1.493-.21 2.04a4.964 4.964 0 0 1-.5 1.47c-.233.433-.55.833-.95 1.2-.4.367-.92.777-1.56 1.23-.307.227-.483.43-.53.61-.047.18.01.37.17.57.187.227.367.337.54.33Z" fill="#FFF"/><path d="M91.393 51.129c.787-.014 1.468-.197 2.04-.548.588-.337 1.035-.709 1.343-1.117.351-.415.602-.892.752-1.429.144-.544.215-1.325.215-2.342 0-.658-.021-1.214-.064-1.665a5.357 5.357 0 0 0-.215-1.128 3.79 3.79 0 0 0-.945-1.493c-.294-.322-.677-.594-1.15-.816a4.723 4.723 0 0 0-1.654-.322c-.938 0-1.773.286-2.503.859v-3.545h6.23v-2.245h-8.346v8.465h2.116c.265-.48.566-.817.902-1.01.337-.186.71-.28 1.117-.28.459 0 .842.065 1.15.194.308.158.54.369.698.634.294.558.433 1.285.419 2.18 0 .366-.007.742-.021 1.128-.03.394-.108.76-.237 1.096a1.638 1.638 0 0 1-.644.817c-.323.214-.752.322-1.29.322-1.253-.015-2.001-.623-2.244-1.826h-2.246c.215 1.44.77 2.481 1.665 3.126.881.63 1.852.945 2.912.945Zm8.852-.129v-2.245H98V51h2.245Zm6.714.129c1.218-.014 2.252-.408 3.105-1.182.866-.78 1.314-1.89 1.342-3.33V39.71c-.028-1.447-.476-2.56-1.342-3.34-.853-.774-1.887-1.161-3.105-1.161-1.182 0-2.198.387-3.05 1.16-.91.78-1.372 1.894-1.386 3.341v6.907c.014 1.44.476 2.55 1.385 3.33.853.774 1.87 1.168 3.051 1.182Zm0-2.245c-1.432-.015-2.163-.813-2.191-2.396V39.85c.028-1.569.759-2.367 2.191-2.396 1.425.029 2.16.827 2.202 2.396v6.638c-.043 1.583-.777 2.381-2.202 2.396Z" fill="#CD8CFF"/><path d="M1.6 27.456c.203 0 .304-.11.304-.328v-5.32c.187-.459.35-.941.488-1.448.048-.176.06-.304.036-.384-.024-.08-.095-.133-.212-.16-.112-.027-.199-.005-.26.064a.858.858 0 0 0-.156.336c-.139.55-.32 1.079-.544 1.588-.224.51-.512 1.028-.864 1.556-.123.176-.187.312-.192.408-.005.096.037.173.128.232.096.064.184.077.264.04.08-.037.173-.136.28-.296l.22-.344c.072-.112.143-.23.212-.352v4.08c0 .219.099.328.296.328Zm2.976-.096c.256.016.456-.043.6-.176.144-.133.216-.379.216-.736V21.36h1.32c.107 0 .176.01.208.032.032.021.043.083.032.184-.005.08-.033.19-.084.328a5.45 5.45 0 0 1-.156.384c-.064.144-.085.25-.064.32.021.07.08.133.176.192.08.048.161.056.244.024.083-.032.159-.123.228-.272a2.81 2.81 0 0 0 .188-.544 3.3 3.3 0 0 0 .076-.472c.016-.272-.035-.47-.152-.592-.117-.123-.312-.184-.584-.184h-3.12c.021-.07.04-.14.056-.212.016-.072.035-.145.056-.22.043-.17.043-.293 0-.368-.043-.075-.117-.117-.224-.128a.293.293 0 0 0-.232.064c-.064.053-.11.15-.136.288-.085.4-.2.785-.344 1.156a5.88 5.88 0 0 1-.608 1.14c-.08.107-.115.207-.104.3.01.093.048.161.112.204.09.059.176.079.256.06.08-.019.16-.092.24-.22.16-.267.299-.517.416-.752.117-.235.221-.472.312-.712h1.28v5.072a.476.476 0 0 1-.048.24c-.032.053-.09.08-.176.08-.075 0-.163-.013-.264-.04a5.096 5.096 0 0 1-.416-.136.58.58 0 0 0-.312-.06c-.085.013-.15.07-.192.172-.048.107-.047.2.004.28a.48.48 0 0 0 .26.184c.23.085.412.14.548.164.136.024.265.039.388.044Zm-2.184-.904c.09.043.172.05.244.02.072-.03.143-.105.212-.228.24-.432.459-.912.656-1.44.197-.528.357-1.061.48-1.6l-.008.008c.037-.144.039-.253.004-.328-.035-.075-.113-.125-.236-.152a.248.248 0 0 0-.244.076.508.508 0 0 0-.14.26 8.547 8.547 0 0 1-.192.712 14.532 14.532 0 0 1-.572 1.52c-.11.245-.217.467-.324.664a.427.427 0 0 0-.064.284c.016.083.077.15.184.204Zm4.6-.336c.075.283.224.384.448.304.107-.043.17-.103.192-.18.021-.077.013-.188-.024-.332-.123-.464-.268-.93-.436-1.396a25.648 25.648 0 0 0-.572-1.444.442.442 0 0 0-.18-.228c-.077-.045-.167-.047-.268-.004a.289.289 0 0 0-.168.192c-.027.09-.01.203.048.336.192.432.373.881.544 1.348.17.467.31.935.416 1.404Zm5.128.864c.25 0 .423-.055.516-.164.093-.11.14-.287.14-.532v-4.84c0-.245-.047-.421-.14-.528-.093-.107-.265-.16-.516-.16h-.528c.027-.064.05-.13.072-.2a5.12 5.12 0 0 1 .072-.216c.043-.15.056-.263.04-.34-.016-.077-.083-.137-.2-.18-.117-.037-.215-.028-.292.028a.416.416 0 0 0-.156.252c-.027.09-.057.19-.092.3a7.33 7.33 0 0 1-.124.356h-.44c-.25 0-.42.053-.508.16-.088.107-.132.283-.132.528v4.84c0 .245.044.423.132.532.088.11.257.164.508.164h1.648Zm3.144.328c.208.027.39.016.548-.032a.843.843 0 0 0 .408-.28c.115-.139.208-.328.28-.568.072-.24.13-.544.172-.912.016-.155.033-.37.052-.644.019-.275.035-.576.048-.904.013-.328.024-.665.032-1.012s.01-.664.004-.952a4.609 4.609 0 0 0-.048-.628.816.816 0 0 0-.144-.376.518.518 0 0 0-.272-.18 1.61 1.61 0 0 0-.432-.048h-1.624c.027-.09.048-.181.064-.272.016-.09.035-.187.056-.288.021-.117.008-.21-.04-.276a.291.291 0 0 0-.216-.116.335.335 0 0 0-.232.052c-.07.045-.115.132-.136.26-.075.432-.177.84-.308 1.224-.13.384-.3.73-.508 1.04a.659.659 0 0 0-.124.332c-.003.099.033.172.108.22.09.059.183.073.276.044.093-.03.183-.113.268-.252.133-.213.25-.432.352-.656.101-.224.195-.464.28-.72h1.68c.144 0 .244.035.3.104.056.07.084.192.084.368 0 .395-.001.743-.004 1.044-.003.301-.008.579-.016.832s-.019.492-.032.716c-.013.224-.03.45-.052.68a6.21 6.21 0 0 1-.112.836 1.755 1.755 0 0 1-.176.5.495.495 0 0 1-.244.228.644.644 0 0 1-.332.02 4.551 4.551 0 0 1-.516-.12 6.344 6.344 0 0 1-.524-.176.735.735 0 0 0-.312-.052c-.09.008-.157.063-.2.164-.048.112-.053.207-.016.284.037.077.147.15.328.22a3.855 3.855 0 0 0 .908.244c.11.019.233.036.372.052Zm-3.128-3.896h-1.664v-1.88c0-.09.03-.136.088-.136h1.472c.07 0 .104.045.104.136v1.88Zm2.816 1.392c.123.299.283.397.48.296.107-.059.164-.132.172-.22.008-.088-.025-.21-.1-.364a20.53 20.53 0 0 0-1.032-1.904c-.075-.123-.152-.192-.232-.208a.29.29 0 0 0-.232.056.274.274 0 0 0-.132.224.47.47 0 0 0 .084.272c.192.304.375.613.548.928.173.315.321.621.444.92Zm-2.92 1.536H10.56c-.027 0-.048-.013-.064-.04a.2.2 0 0 1-.024-.104v-2.144h1.664V26.2c0 .096-.035.144-.104.144Zm14.136-5.056c.107 0 .18-.021.22-.064.04-.043.06-.117.06-.224a.385.385 0 0 0-.06-.228c-.04-.056-.113-.084-.22-.084h-1.824a5.444 5.444 0 0 0-.352-.76.406.406 0 0 0-.172-.144c-.077-.037-.161-.03-.252.024a.345.345 0 0 0-.156.176c-.03.075-.017.157.036.248l.216.456h-1.552c-.112 0-.19.024-.232.072-.043.048-.064.12-.064.216 0 .107.021.185.064.236.043.05.12.076.232.076h4.056Zm-5.72 6.136a.34.34 0 0 0 .212-.064c.056-.043.084-.117.084-.224v-4.072l.18.372c.061.125.121.244.18.356.048.117.11.192.184.224.075.032.155.016.24-.048.085-.064.132-.135.14-.212a.415.415 0 0 0-.068-.252c-.133-.24-.268-.475-.404-.704a17.83 17.83 0 0 0-.452-.72v-.2h.696c.181 0 .272-.099.272-.296 0-.09-.02-.163-.06-.216-.04-.053-.11-.08-.212-.08h-.696v-1.192c0-.107-.028-.18-.084-.22a.356.356 0 0 0-.212-.06.396.396 0 0 0-.212.052c-.056.035-.084.11-.084.228v1.192h-.792c-.101 0-.167.027-.196.08a.45.45 0 0 0-.044.216c0 .09.016.163.048.216.032.053.096.08.192.08h.704c-.085.315-.168.604-.248.868a11.835 11.835 0 0 1-.512 1.38c-.09.203-.19.403-.296.6a.552.552 0 0 0-.08.312c.01.085.053.147.128.184a.274.274 0 0 0 .212.024c.067-.021.137-.099.212-.232.139-.25.261-.497.368-.74.107-.243.208-.508.304-.796v3.656c0 .112.028.188.084.228.056.04.127.06.212.06Zm5.608-3.652c.064.035.141.028.232-.02a.285.285 0 0 0 .168-.188c.021-.083-.005-.196-.08-.34-.155-.299-.32-.584-.496-.856a26.099 26.099 0 0 0-.568-.84c-.139-.187-.296-.216-.472-.088-.07.053-.101.119-.096.196a.542.542 0 0 0 .096.252c.197.272.381.537.552.796.17.259.325.535.464.828.07.139.136.225.2.26Zm-4.053-.022.049-.01a.603.603 0 0 0 .252-.204 8.59 8.59 0 0 0 .292-.396 4.42 4.42 0 0 0 .228-.368 7.21 7.21 0 0 0 .208-.408c.07-.147.15-.319.24-.516.048-.107.061-.196.04-.268-.021-.072-.085-.13-.192-.172-.101-.043-.183-.039-.244.012a.522.522 0 0 0-.148.236 6.588 6.588 0 0 1-.176.448 2.974 2.974 0 0 1-.192.368c-.07.112-.144.22-.224.324-.08.104-.168.212-.264.324-.101.112-.156.21-.164.292-.008.083.025.161.1.236.08.09.161.121.244.092l-.05.01Zm-.351 3.666c.077 0 .17-.024.276-.072.453-.213.859-.433 1.216-.66a6.06 6.06 0 0 0 .96-.748c.256.256.54.493.852.712.312.219.657.435 1.036.648a.772.772 0 0 0 .332.116c.088.003.159-.05.212-.156a.308.308 0 0 0 .02-.252c-.03-.088-.13-.175-.3-.26a7.56 7.56 0 0 1-.94-.564 5.824 5.824 0 0 1-.804-.684c.443-.55.773-1.227.992-2.032.043-.17.055-.293.036-.368-.019-.075-.073-.133-.164-.176-.101-.043-.188-.039-.26.012-.072.05-.121.137-.148.26-.176.725-.464 1.339-.864 1.84a5.474 5.474 0 0 1-.52-.792 4.55 4.55 0 0 1-.36-.88c-.043-.155-.099-.253-.168-.296-.07-.043-.157-.043-.264 0-.09.043-.14.101-.148.176-.008.075.012.197.06.368.107.373.241.713.404 1.02.163.307.356.596.58.868-.256.25-.552.48-.888.688a9.37 9.37 0 0 1-1.136.592.417.417 0 0 0-.212.204.307.307 0 0 0 .012.276c.048.107.11.16.188.16Zm13.284-.192c.256 0 .435-.056.536-.168.101-.112.152-.296.152-.552v-5.632c0-.256-.05-.441-.152-.556-.101-.115-.28-.172-.536-.172h-5.512c-.261 0-.439.057-.532.172-.093.115-.14.3-.14.556v5.632c0 .256.047.44.14.552.093.112.27.168.532.168h5.512Zm-.008-.616h-5.504c-.043 0-.064-.04-.064-.12v-5.616c0-.07.021-.104.064-.104h5.504c.053 0 .08.035.08.104v5.616c0 .08-.027.12-.08.12Zm-.864-4.656c.107 0 .183-.028.228-.084a.314.314 0 0 0 .068-.204c0-.09-.023-.16-.068-.208-.045-.048-.121-.072-.228-.072h-3.776c-.117 0-.197.024-.24.072-.043.048-.064.117-.064.208 0 .08.021.148.064.204.043.056.123.084.24.084h3.776Zm-4.24 4.5c.07-.003.17-.052.304-.148a5.95 5.95 0 0 0 .708-.584 2.61 2.61 0 0 0 .46-.6c.117-.213.201-.452.252-.716.05-.264.079-.575.084-.932h.872v1.52c0 .272.015.49.044.656.03.165.084.293.164.384.08.09.193.152.34.184.147.032.337.048.572.048.24 0 .437-.015.592-.044a.607.607 0 0 0 .364-.2c.088-.104.147-.256.176-.456.03-.2.041-.47.036-.812 0-.123-.02-.22-.06-.292-.04-.072-.116-.108-.228-.108s-.187.032-.224.096a.585.585 0 0 0-.056.288 5.5 5.5 0 0 1-.008.544.722.722 0 0 1-.068.284.223.223 0 0 1-.164.112c-.075.013-.173.02-.296.02-.128 0-.23-.004-.308-.012a.26.26 0 0 1-.176-.08.39.39 0 0 1-.08-.204 2.81 2.81 0 0 1-.02-.384v-1.544h1.24c.112 0 .192-.024.24-.072.048-.048.072-.12.072-.216a.295.295 0 0 0-.068-.204c-.045-.05-.124-.076-.236-.076H29.92c-.107 0-.183.025-.228.076a.295.295 0 0 0-.068.204c0 .096.023.168.068.216.045.048.121.072.228.072h1.12a6.395 6.395 0 0 1-.084.816c-.04.219-.107.415-.2.588-.093.173-.22.333-.38.48-.16.147-.368.31-.624.492-.123.09-.193.172-.212.244-.019.072.004.148.068.228.075.09.147.135.216.132Zm15.192.78c.133 0 .223-.025.268-.076.045-.05.068-.13.068-.236 0-.107-.025-.184-.076-.232-.05-.048-.137-.072-.26-.072H42.04v-2.064h2.28c.133 0 .223-.025.268-.076.045-.05.068-.13.068-.236 0-.112-.025-.192-.076-.24-.05-.048-.137-.072-.26-.072h-2.28v-1.92h2.656c.133 0 .223-.025.268-.076.045-.05.068-.127.068-.228 0-.112-.025-.192-.076-.24-.05-.048-.137-.072-.26-.072H42.04v-1.24c0-.133-.025-.223-.076-.268-.05-.045-.127-.068-.228-.068-.112 0-.192.025-.24.076-.048.05-.072.137-.072.26v1.24H39.52c.048-.139.09-.277.128-.416.037-.139.07-.27.096-.392.032-.155.028-.273-.012-.356-.04-.083-.13-.127-.268-.132-.192-.016-.312.117-.36.4a6.15 6.15 0 0 1-.156.628 9.679 9.679 0 0 1-.52 1.328 5.442 5.442 0 0 1-.332.596.67.67 0 0 0-.132.34.245.245 0 0 0 .124.228c.203.117.381.043.536-.224a11.303 11.303 0 0 0 .672-1.384h2.128v1.92h-2.496c-.128 0-.216.024-.264.072-.048.048-.072.128-.072.24 0 .107.023.185.068.236.045.05.135.076.268.076h2.496v2.064h-3.24c-.128 0-.216.024-.264.072-.048.048-.072.125-.072.232 0 .107.023.185.068.236.045.05.135.076.268.076h6.832Zm8.576-.104c.267 0 .448-.045.544-.136.096-.09.144-.259.144-.504v-1.944c0-.25-.053-.421-.16-.512-.107-.09-.283-.136-.528-.136h-1.224v-1.104h2.072c.107 0 .187-.03.24-.088a.332.332 0 0 0 .08-.232.32.32 0 0 0-.08-.224c-.053-.059-.133-.088-.24-.088h-2.072v-1.248c.283-.043.55-.09.804-.144a7.99 7.99 0 0 0 .716-.184c.16-.048.267-.103.32-.164.053-.061.064-.153.032-.276a.277.277 0 0 0-.168-.188c-.085-.035-.195-.03-.328.012-.299.085-.59.159-.876.22a11.563 11.563 0 0 1-1.776.24c-.312.019-.647.028-1.004.028-.192 0-.323.027-.392.08-.07.053-.101.136-.096.248.01.112.045.196.104.252.059.056.181.079.368.068a28.19 28.19 0 0 0 1.648-.112v1.168h-2.072c-.107 0-.187.03-.24.088a.32.32 0 0 0-.08.224c0 .096.027.173.08.232.053.059.133.088.24.088h2.072v1.104h-1.232c-.245 0-.42.045-.524.136-.104.09-.156.261-.156.512v1.944c0 .25.053.42.16.508.107.088.28.132.52.132h3.104ZM48.8 21.464c.219.176.384.187.496.032.133-.176.096-.344-.112-.504a10.38 10.38 0 0 0-.556-.416 13.734 13.734 0 0 0-.612-.4c-.208-.128-.365-.117-.472.032a.305.305 0 0 0-.068.236c.013.077.073.148.18.212a12.223 12.223 0 0 1 1.144.808Zm.112 2.284c.085.003.157-.036.216-.116.059-.085.083-.164.072-.236-.01-.072-.077-.161-.2-.268a7.75 7.75 0 0 0-.58-.448 13.983 13.983 0 0 0-.684-.448.442.442 0 0 0-.26-.076c-.072.008-.137.06-.196.156-.101.16-.048.307.16.44.219.139.424.276.616.412.192.136.381.284.568.444.107.09.203.137.288.14Zm-1.308 3.59.056-.006c.072-.019.145-.076.22-.172.304-.384.57-.783.796-1.196.227-.413.43-.863.612-1.348.059-.155.076-.27.052-.344-.024-.075-.081-.125-.172-.152-.101-.032-.184-.032-.248 0s-.117.11-.16.232c-.181.47-.384.905-.608 1.308a7.46 7.46 0 0 1-.704 1.06c-.112.139-.165.248-.16.328.005.08.048.15.128.208.09.07.172.095.244.076l-.056.006Zm5.908-.818h-2.944c-.096 0-.144-.035-.144-.104v-1.792c0-.043.013-.073.04-.092a.178.178 0 0 1 .104-.028h2.944c.101 0 .152.04.152.12v1.792c0 .07-.05.104-.152.104Zm5.056.92a.33.33 0 0 0 .208-.068c.059-.045.088-.121.088-.228V25.8l.548-.156c.179-.05.353-.105.524-.164.133-.043.219-.1.256-.172.037-.072.035-.161-.008-.268-.037-.09-.09-.148-.16-.172-.07-.024-.165-.015-.288.028l-.424.144a8.908 8.908 0 0 1-.448.136v-1.272h.808c.208 0 .312-.096.312-.288 0-.197-.104-.296-.312-.296h-.808v-1.392c0-.112-.027-.192-.08-.24a.31.31 0 0 0-.216-.072.3.3 0 0 0-.208.072c-.053.048-.08.128-.08.24v1.392h-.632c-.07 0-.11-.012-.124-.036-.013-.024-.007-.068.02-.132.155-.368.293-.708.416-1.02.123-.312.232-.62.328-.924h1.336c.096 0 .168-.025.216-.076a.296.296 0 0 0 .072-.212c0-.09-.02-.161-.06-.212-.04-.05-.116-.076-.228-.076h-1.176a8.95 8.95 0 0 0 .048-.184l.048-.192c.037-.155.043-.268.016-.34-.027-.072-.101-.121-.224-.148-.107-.027-.188-.007-.244.06-.056.067-.1.177-.132.332a7.713 7.713 0 0 1-.112.472h-.944c-.117 0-.196.025-.236.076a.334.334 0 0 0-.06.212c0 .09.023.161.068.212.045.05.121.076.228.076h.784c-.085.272-.183.544-.292.816-.11.272-.233.552-.372.84-.165.336-.201.593-.108.772.093.179.327.268.7.268h.664v1.424a11.96 11.96 0 0 1-.676.16c-.232.048-.473.096-.724.144-.133.027-.224.07-.272.132-.048.061-.061.145-.04.252.027.107.07.177.128.212.059.035.168.036.328.004.213-.043.425-.088.636-.136l.62-.144v1.192c0 .107.03.183.088.228a.318.318 0 0 0 .2.068Zm.896-.037.064-.003c.085-.016.195-.107.328-.272.304-.384.556-.755.756-1.112.2-.357.36-.747.48-1.168.12-.421.205-.899.256-1.432.05-.533.079-1.168.084-1.904h.784c.075 0 .112.045.112.136v4.672c0 .192.013.35.04.476a.642.642 0 0 0 .14.3.53.53 0 0 0 .272.156c.115.03.26.044.436.044.203 0 .367-.021.492-.064a.507.507 0 0 0 .292-.284c.07-.147.116-.361.14-.644.024-.283.036-.664.036-1.144 0-.155-.02-.27-.06-.348-.04-.077-.121-.116-.244-.116s-.204.037-.244.112a.757.757 0 0 0-.06.344c0 .363-.004.647-.012.852-.008.205-.024.36-.048.464-.024.104-.059.17-.104.196a.335.335 0 0 1-.172.04c-.117 0-.193-.028-.228-.084-.035-.056-.052-.177-.052-.364v-4.64c0-.256-.055-.439-.164-.548-.11-.11-.29-.164-.54-.164h-.816v-.8c0-.123-.025-.21-.076-.26-.05-.05-.124-.076-.22-.076-.107 0-.187.025-.24.076-.053.05-.08.137-.08.26v.8h-.52a.493.493 0 0 0-.268.06c-.061.04-.092.127-.092.26 0 .123.03.201.092.236.061.035.15.052.268.052h.52c-.005.72-.03 1.333-.072 1.84a7.25 7.25 0 0 1-.228 1.344c-.11.39-.26.744-.452 1.064-.192.32-.435.653-.728 1-.107.123-.164.227-.172.312-.008.085.028.165.108.24.085.075.17.104.256.088l-.064.004Zm9.446-.91.07-.017c.093-.035.185-.124.276-.268.123-.224.241-.472.356-.744.115-.272.215-.564.3-.876.085-.312.153-.64.204-.984.05-.344.076-.697.076-1.06v-1.352h.912V25.4c0 .07-.004.121-.012.156s-.03.052-.068.052a.922.922 0 0 1-.24-.044 7.466 7.466 0 0 1-.4-.132c-.17-.053-.293-.067-.368-.04-.075.027-.125.085-.152.176-.053.123-.06.216-.02.28.04.064.137.125.292.184.187.07.35.119.492.148.141.03.268.044.38.044.261 0 .447-.07.556-.208.11-.139.164-.333.164-.584v-4.24h1.536c.128 0 .21-.023.248-.068.037-.045.056-.121.056-.228 0-.128-.023-.21-.068-.248-.045-.037-.124-.056-.236-.056h-2.248a24.891 24.891 0 0 0-.104-.348 2.13 2.13 0 0 0-.088-.244c-.07-.144-.147-.23-.232-.26-.085-.03-.187-.015-.304.044-.09.053-.136.113-.136.18 0 .067.032.17.096.308.021.043.043.092.064.148.021.056.045.113.072.172h-2.128a.43.43 0 0 0-.232.048c-.048.032-.072.117-.072.256s.021.223.064.252c.043.03.123.044.24.044h1.312v1.352c0 .688-.081 1.315-.244 1.88a5.675 5.675 0 0 1-.62 1.448c-.09.139-.136.253-.136.344 0 .09.045.165.136.224.09.059.183.07.276.036l-.07.017Zm-1.382-4.921c.07.013.141-.01.216-.068.09-.08.132-.163.124-.248a.495.495 0 0 0-.14-.272 7.524 7.524 0 0 0-.48-.484c-.15-.136-.317-.284-.504-.444-.112-.101-.205-.152-.28-.152-.075 0-.139.035-.192.104-.08.107-.113.195-.1.264.013.07.065.139.156.208.07.053.147.117.232.192.085.075.172.152.26.232a5.352 5.352 0 0 1 .452.464c.101.123.187.19.256.204Zm5.372 3.892a.66.66 0 0 0 .172-.008c.117-.027.192-.077.224-.152s.03-.205-.008-.392c-.08-.48-.176-.952-.288-1.416-.112-.464-.24-.95-.384-1.456-.043-.144-.101-.239-.176-.284-.075-.045-.157-.047-.248-.004-.107.043-.17.101-.192.176-.021.075-.005.195.048.36.07.23.133.452.192.668a16.834 16.834 0 0 1 .304 1.328c.043.227.083.465.12.716.016.107.033.193.052.26a.364.364 0 0 0 .072.148c.03.032.067.05.112.056Zm-4.884-.312c.123.07.221.081.296.036.075-.045.15-.148.224-.308.139-.32.26-.69.364-1.112.104-.421.196-.923.276-1.504.027-.208.021-.341-.016-.4-.037-.059-.11-.096-.216-.112-.117-.016-.203.005-.256.064-.053.059-.093.181-.12.368-.032.293-.065.555-.1.784-.035.23-.076.44-.124.632a6.019 6.019 0 0 1-.164.548c-.061.173-.137.35-.228.532a.55.55 0 0 0-.084.272c.003.075.052.141.148.2Zm-1.992 2.144c.112.17.27.19.472.056.176-.112.345-.252.508-.42a2.23 2.23 0 0 0 .396-.556c.139.165.277.303.416.412.139.11.29.197.456.264.165.067.35.113.556.14.205.027.444.04.716.04h3.808c.117 0 .196-.021.236-.064.04-.043.06-.125.06-.248 0-.096-.02-.168-.06-.216-.04-.048-.119-.072-.236-.072h-3.808c-.245 0-.463-.013-.652-.04a1.764 1.764 0 0 1-.512-.148 1.486 1.486 0 0 1-.416-.296 2.46 2.46 0 0 1-.364-.484c.005-.043.008-.088.008-.136v-2.624c0-.155-.01-.28-.028-.376a.544.544 0 0 0-.092-.228.328.328 0 0 0-.18-.116 1.12 1.12 0 0 0-.292-.032h-.72c-.112 0-.188.025-.228.076-.04.05-.06.13-.06.236 0 .107.02.181.06.224.04.043.116.064.228.064h.632c.048 0 .072.035.072.104v2.696c0 .235-.075.468-.224.7a1.74 1.74 0 0 1-.568.556c-.139.08-.219.159-.24.236-.021.077-.003.161.056.252Z" fill="#8A8A8A"/></g></svg>