<?xml version="1.0" encoding="UTF-8"?>
<svg width="122px" height="56px" viewBox="0 0 122 56" version="1.1" xmlns="http://www.w3.org/2000/svg" xmlns:xlink="http://www.w3.org/1999/xlink">
    <title>编组</title>
    <g id="页面-1" stroke="none" stroke-width="1" fill="none" fill-rule="evenodd">
        <g id="手机备份-2" transform="translate(-181.000000, -52.000000)" fill-rule="nonzero">
            <g id="编组" transform="translate(181.000000, 52.000000)">
                <path d="M14.302,18.458 C15.314,18.458 16.142,18.136 16.832,17.492 C17.522,16.848 17.89,15.974 17.89,14.962 C17.89,13.95 17.522,13.122 16.878,12.478 C16.188,11.834 15.314,11.512 14.302,11.512 C13.29,11.512 12.462,11.834 11.772,12.478 C11.082,13.122 10.76,13.95 10.76,14.962 C10.76,15.974 11.082,16.802 11.772,17.492 C12.462,18.136 13.29,18.458 14.302,18.458 Z M16.924,45 L16.924,21.218 L11.68,21.218 L11.68,45 L16.924,45 Z M28.742044,45 L28.742044,20.988 L28.926044,20.988 L45.348044,45 L50.592044,45 L50.592044,12.156 L45.164044,12.156 L45.164044,35.846 L44.980044,35.846 L28.742044,12.156 L23.360044,12.156 L23.360044,45 L28.742044,45 Z M70.874088,45.644 C74.416088,45.644 77.452088,44.632 79.982088,42.608 C82.696088,40.446 84.398088,37.456 85.134088,33.592 L79.890088,33.592 C79.246088,36.076 78.142088,37.962 76.578088,39.204 C75.106088,40.308 73.174088,40.906 70.828088,40.906 C67.240088,40.906 64.572088,39.756 62.870088,37.548 C61.306088,35.478 60.524088,32.488 60.524088,28.624 C60.524088,24.852 61.306088,21.908 62.916088,19.792 C64.664088,17.4 67.240088,16.25 70.690088,16.25 C72.990088,16.25 74.876088,16.71 76.348088,17.722 C77.866088,18.734 78.878088,20.298 79.430088,22.46 L84.674088,22.46 C84.168088,19.148 82.742088,16.48 80.350088,14.548 C77.866088,12.524 74.646088,11.512 70.782088,11.512 C65.538088,11.512 61.536088,13.214 58.776088,16.71 C56.338088,19.746 55.142088,23.748 55.142088,28.624 C55.142088,33.592 56.292088,37.548 58.638088,40.492 C61.306088,43.896 65.400088,45.644 70.874088,45.644 Z M103.346132,45.644 C107.670132,45.644 111.028132,44.54 113.420132,42.332 C115.812132,40.078 117.008132,36.812 117.008132,32.534 L117.008132,12.156 L111.626132,12.156 L111.626132,32.626 C111.626132,35.478 110.936132,37.548 109.648132,38.928 C108.314132,40.262 106.198132,40.952 103.346132,40.952 C100.448132,40.952 98.332132,40.262 97.044132,38.928 C95.710132,37.548 95.066132,35.478 95.066132,32.626 L95.066132,12.156 L89.684132,12.156 L89.684132,32.534 C89.684132,36.812 90.880132,40.078 93.318132,42.378 C95.618132,44.54 98.976132,45.644 103.346132,45.644 Z" id="iNCU" fill="#202043"></path>
                <path d="M16.06,52.6 C16.42,52.6 16.7466667,52.5733333 17.04,52.52 C17.3333333,52.4666667 17.5833333,52.3666667 17.79,52.22 C17.9966667,52.0733333 18.1566667,51.8633333 18.27,51.59 C18.3833333,51.3166667 18.44,50.96 18.44,50.52 L18.44,50.52 L18.44,40.08 C18.44,39.4666667 18.32,39.0266667 18.08,38.76 C17.84,38.4933333 17.4133333,38.36 16.8,38.36 L16.8,38.36 L10.46,38.36 C10.4866667,38.12 10.5066667,37.88 10.52,37.64 C10.5333333,37.4 10.5533333,37.1533333 10.58,36.9 L10.58,36.9 L18.62,36.9 C18.8866667,36.9 19.09,36.83 19.23,36.69 C19.37,36.55 19.44,36.3666667 19.44,36.14 C19.44,35.9133333 19.37,35.73 19.23,35.59 C19.09,35.45 18.8866667,35.38 18.62,35.38 L18.62,35.38 L10.68,35.38 C10.7066667,35.1933333 10.7233333,35.0033333 10.73,34.81 C10.7366667,34.6166667 10.7533333,34.4266667 10.78,34.24 C10.8066667,33.9733333 10.76,33.78 10.64,33.66 C10.52,33.54 10.3266667,33.4666667 10.06,33.44 C9.55333333,33.4 9.28,33.6533333 9.24,34.2 L9.24,34.2 L9.14,35.38 L1.34,35.38 C1.04666667,35.38 0.843333333,35.45 0.73,35.59 C0.616666667,35.73 0.56,35.9133333 0.56,36.14 C0.56,36.3666667 0.616666667,36.55 0.73,36.69 C0.843333333,36.83 1.04666667,36.9 1.34,36.9 L1.34,36.9 L9.04,36.9 L8.92,38.36 L3.34,38.36 C2.72666667,38.36 2.29333333,38.4933333 2.04,38.76 C1.78666667,39.0266667 1.66,39.4666667 1.66,40.08 L1.66,40.08 L1.66,51.7 C1.66,52.2866667 1.92,52.58 2.44,52.58 C2.94666667,52.58 3.2,52.2866667 3.2,51.7 L3.2,51.7 L3.2,40.22 C3.2,40.1266667 3.22666667,40.0433333 3.28,39.97 C3.33333333,39.8966667 3.39333333,39.86 3.46,39.86 L3.46,39.86 L16.62,39.86 C16.6866667,39.86 16.75,39.8933333 16.81,39.96 C16.87,40.0266667 16.9,40.1133333 16.9,40.22 L16.9,40.22 L16.9,50.38 C16.9,50.6066667 16.8633333,50.7666667 16.79,50.86 C16.7166667,50.9533333 16.5866667,51.0266667 16.4,51.08 C16.24,51.1333333 15.9833333,51.13 15.63,51.07 C15.2766667,51.01 14.7933333,50.8733333 14.18,50.66 C13.8333333,50.5533333 13.55,50.51 13.33,50.53 C13.11,50.55 12.9533333,50.6733333 12.86,50.9 C12.74,51.1933333 12.7266667,51.44 12.82,51.64 C12.9133333,51.84 13.2,52.0133333 13.68,52.16 C14.1333333,52.3066667 14.56,52.4166667 14.96,52.49 C15.36,52.5633333 15.7266667,52.6 16.06,52.6 Z M10.06,52.46 C10.3666667,52.46 10.57,52.3766667 10.67,52.21 C10.77,52.0433333 10.82,51.82 10.82,51.54 L10.82,51.54 L10.82,47.98 L15.98,47.98 C16.26,47.98 16.4566667,47.9133333 16.57,47.78 C16.6833333,47.6466667 16.74,47.4666667 16.74,47.24 C16.74,47 16.6833333,46.81 16.57,46.67 C16.4566667,46.53 16.26,46.46 15.98,46.46 L15.98,46.46 L10.82,46.46 L10.82,44.58 L15.36,44.58 C15.64,44.58 15.84,44.5166667 15.96,44.39 C16.08,44.2633333 16.14,44.0733333 16.14,43.82 C16.14,43.5933333 16.08,43.41 15.96,43.27 C15.84,43.13 15.64,43.06 15.36,43.06 L15.36,43.06 L13.26,43.06 C13.2866667,43.0333333 13.31,43 13.33,42.96 C13.35,42.92 13.3733333,42.88 13.4,42.84 C13.48,42.7066667 13.5466667,42.59 13.6,42.49 C13.6533333,42.39 13.71,42.2833333 13.77,42.17 C13.83,42.0566667 13.8933333,41.93 13.96,41.79 C14.0266667,41.65 14.1066667,41.4733333 14.2,41.26 C14.3066667,40.9666667 14.35,40.7233333 14.33,40.53 C14.31,40.3366667 14.1866667,40.1866667 13.96,40.08 C13.48,39.8666667 13.1066667,40.0866667 12.84,40.74 C12.72,41.0333333 12.61,41.2766667 12.51,41.47 C12.41,41.6633333 12.2666667,41.9066667 12.08,42.2 C11.8533333,42.56 11.78,42.8466667 11.86,43.06 L11.86,43.06 L8.4,43.06 C8.48,42.9533333 8.51,42.83 8.49,42.69 C8.47,42.55 8.41333333,42.3866667 8.32,42.2 C8.18666667,41.9066667 8.05666667,41.63 7.93,41.37 C7.80333333,41.11 7.64666667,40.82 7.46,40.5 C7.32666667,40.2733333 7.17666667,40.1166667 7.01,40.03 C6.84333333,39.9433333 6.62666667,39.9666667 6.36,40.1 C6.17333333,40.1933333 6.06,40.3333333 6.02,40.52 C5.98,40.7066667 6.04666667,40.9666667 6.22,41.3 C6.38,41.6066667 6.50333333,41.8533333 6.59,42.04 C6.67666667,42.2266667 6.78666667,42.4666667 6.92,42.76 C6.96,42.8933333 7.00666667,42.9933333 7.06,43.06 L7.06,43.06 L4.76,43.06 C4.49333333,43.06 4.3,43.13 4.18,43.27 C4.06,43.41 4,43.5933333 4,43.82 C4,44.3266667 4.25333333,44.58 4.76,44.58 L4.76,44.58 L9.28,44.58 L9.28,46.46 L4.16,46.46 C3.88,46.46 3.68,46.53 3.56,46.67 C3.44,46.81 3.38,47 3.38,47.24 C3.38,47.4666667 3.44,47.6466667 3.56,47.78 C3.68,47.9133333 3.88,47.98 4.16,47.98 L4.16,47.98 L9.28,47.98 L9.28,51.54 C9.28,51.82 9.32333333,52.0433333 9.41,52.21 C9.49666667,52.3766667 9.71333333,52.46 10.06,52.46 Z M22.22,52.47 C22.4733333,52.5033333 22.82,52.3866667 23.26,52.12 C24.0866667,51.6266667 24.9,51.0266667 25.7,50.32 C26.5,49.6133333 27.2466667,48.83 27.94,47.97 C28.6333333,47.11 29.2566667,46.1966667 29.81,45.23 C30.3633333,44.2633333 30.8066667,43.2733333 31.14,42.26 C31.8733333,44.14 32.8233333,45.8866667 33.99,47.5 C35.1566667,49.1133333 36.46,50.54 37.9,51.78 C38.38,52.1533333 38.75,52.35 39.01,52.37 C39.27,52.39 39.4933333,52.2733333 39.68,52.02 C39.8533333,51.78 39.89,51.5433333 39.79,51.31 C39.69,51.0766667 39.4066667,50.7866667 38.94,50.44 C37.3533333,49.2266667 35.94,47.7166667 34.7,45.91 C33.46,44.1033333 32.4933333,41.9533333 31.8,39.46 L31.8,39.46 L38.92,39.46 C39.2666667,39.46 39.5,39.3866667 39.62,39.24 C39.74,39.0933333 39.8,38.8866667 39.8,38.62 C39.8,38.38 39.74,38.1866667 39.62,38.04 C39.5,37.8933333 39.2666667,37.82 38.92,37.82 L38.92,37.82 L31.8,37.82 L31.8,34.2 C31.8,33.8666667 31.74,33.6333333 31.62,33.5 C31.5,33.3666667 31.3,33.3 31.02,33.3 C30.7533333,33.3 30.5533333,33.3666667 30.42,33.5 C30.2866667,33.6333333 30.22,33.8666667 30.22,34.2 L30.22,34.2 L30.22,37.82 L22.94,37.82 C22.6066667,37.82 22.37,37.8933333 22.23,38.04 C22.09,38.1866667 22.02,38.38 22.02,38.62 C22.02,38.8866667 22.09,39.0933333 22.23,39.24 C22.37,39.3866667 22.6066667,39.46 22.94,39.46 L22.94,39.46 L30.16,39.46 C30.0533333,40.46 29.8,41.4833333 29.4,42.53 C29,43.5766667 28.47,44.59 27.81,45.57 C27.15,46.55 26.37,47.4766667 25.47,48.35 C24.57,49.2233333 23.5666667,49.9933333 22.46,50.66 C22.0733333,50.8866667 21.8066667,51.1 21.66,51.3 C21.5133333,51.5 21.5066667,51.74 21.64,52.02 C21.7733333,52.2866667 21.9666667,52.4366667 22.22,52.47 Z M43.42,39.82 C43.66,39.82 43.85,39.7466667 43.99,39.6 C44.13,39.4533333 44.2,39.2466667 44.2,38.98 L44.2,38.98 L44.2,37.2 C44.2,36.84 44.3333333,36.66 44.6,36.66 L44.6,36.66 L57.98,36.66 C58.5533333,36.66 58.84,36.8333333 58.84,37.18 C58.84,37.46 58.72,37.8266667 58.48,38.28 C58.28,38.6666667 58.1933333,38.9566667 58.22,39.15 C58.2466667,39.3433333 58.3733333,39.5066667 58.6,39.64 C58.88,39.8 59.1,39.8366667 59.26,39.75 C59.42,39.6633333 59.6133333,39.4066667 59.84,38.98 C59.9866667,38.6733333 60.1066667,38.3433333 60.2,37.99 C60.2933333,37.6366667 60.34,37.3066667 60.34,37 C60.34,35.76 59.6466667,35.14 58.26,35.14 L58.26,35.14 L52.04,35.14 C51.9466667,34.8733333 51.8633333,34.6366667 51.79,34.43 C51.7166667,34.2233333 51.6466667,34.0533333 51.58,33.92 C51.4333333,33.5733333 51.2766667,33.37 51.11,33.31 C50.9433333,33.25 50.7266667,33.2733333 50.46,33.38 C50.2333333,33.4866667 50.0966667,33.6266667 50.05,33.8 C50.0033333,33.9733333 50.0666667,34.24 50.24,34.6 C50.28,34.6933333 50.3233333,34.7833333 50.37,34.87 C50.4166667,34.9566667 50.4533333,35.0466667 50.48,35.14 L50.48,35.14 L44.52,35.14 C43.96,35.14 43.5066667,35.3266667 43.16,35.7 C42.8133333,36.0733333 42.64,36.5866667 42.64,37.24 L42.64,37.24 L42.64,39.02 C42.64,39.2866667 42.6966667,39.4866667 42.81,39.62 C42.9233333,39.7533333 43.1266667,39.82 43.42,39.82 Z M50.6,52.44 C51.4533333,52.44 52.1866667,52.17 52.8,51.63 C53.4133333,51.09 53.8933333,50.2466667 54.24,49.1 C54.32,48.8466667 54.38,48.54 54.42,48.18 C54.46,47.82 54.4866667,47.4433333 54.5,47.05 C54.5133333,46.6566667 54.5066667,46.27 54.48,45.89 C54.4533333,45.51 54.42,45.1733333 54.38,44.88 L54.38,44.88 L54.3,44.56 C54.3266667,44.5333333 54.3566667,44.5166667 54.39,44.51 C54.4233333,44.5033333 54.4533333,44.4866667 54.48,44.46 C55.2,45.8733333 55.9633333,47.0866667 56.77,48.1 C57.5766667,49.1133333 58.4733333,50.0333333 59.46,50.86 C60.1533333,51.3933333 60.6466667,51.4666667 60.94,51.08 C61.1266667,50.8266667 61.1933333,50.5866667 61.14,50.36 C61.0866667,50.1333333 60.8866667,49.8933333 60.54,49.64 C60.02,49.2666667 59.5366667,48.8766667 59.09,48.47 C58.6433333,48.0633333 58.2233333,47.6233333 57.83,47.15 C57.4366667,46.6766667 57.0666667,46.16 56.72,45.6 C56.3733333,45.04 56.04,44.4266667 55.72,43.76 C56.2666667,43.44 56.76,43.1266667 57.2,42.82 C57.64,42.5133333 58.0533333,42.2066667 58.44,41.9 C58.76,41.6466667 58.9333333,41.4 58.96,41.16 C58.9866667,40.92 58.88,40.7066667 58.64,40.52 C58.4533333,40.4 58.2633333,40.3566667 58.07,40.39 C57.8766667,40.4233333 57.6266667,40.5666667 57.32,40.82 C56.8,41.26 56.2633333,41.6666667 55.71,42.04 C55.1566667,42.4133333 54.54,42.7733333 53.86,43.12 C53.6733333,42.6533333 53.4233333,42.1933333 53.11,41.74 C52.7966667,41.2866667 52.3866667,40.7933333 51.88,40.26 C52.2133333,40.0333333 52.52,39.8066667 52.8,39.58 L52.8,39.58 L56.86,39.58 C57.5,39.58 57.82,39.32 57.82,38.8 C57.82,38.52 57.7366667,38.3266667 57.57,38.22 C57.4033333,38.1133333 57.1666667,38.06 56.86,38.06 L56.86,38.06 L45.7,38.06 C45.38,38.06 45.1433333,38.12 44.99,38.24 C44.8366667,38.36 44.76,38.56 44.76,38.84 C44.76,39.1066667 44.8366667,39.2966667 44.99,39.41 C45.1433333,39.5233333 45.38,39.58 45.7,39.58 L45.7,39.58 L50.26,39.58 C49.18,40.2733333 48.07,40.9066667 46.93,41.48 C45.79,42.0533333 44.72,42.4933333 43.72,42.8 C43.28,42.9466667 43.0066667,43.1166667 42.9,43.31 C42.7933333,43.5033333 42.78,43.7133333 42.86,43.94 C42.9666667,44.2333333 43.1233333,44.3966667 43.33,44.43 C43.5366667,44.4633333 43.8333333,44.4066667 44.22,44.26 C45.4333333,43.82 46.55,43.3433333 47.57,42.83 C48.59,42.3166667 49.6,41.74 50.6,41.1 C50.9066667,41.4466667 51.18,41.78 51.42,42.1 C50.8333333,42.54 50.22,42.9666667 49.58,43.38 C48.94,43.7933333 48.2833333,44.1833333 47.61,44.55 C46.9366667,44.9166667 46.2633333,45.2533333 45.59,45.56 C44.9166667,45.8666667 44.26,46.1333333 43.62,46.36 C42.8866667,46.6133333 42.6,46.9866667 42.76,47.48 C42.8666667,47.7733333 43.0233333,47.9366667 43.23,47.97 C43.4366667,48.0033333 43.7466667,47.9466667 44.16,47.8 C44.8533333,47.5466667 45.5566667,47.2566667 46.27,46.93 C46.9833333,46.6033333 47.6866667,46.25 48.38,45.87 C49.0733333,45.49 49.7433333,45.0933333 50.39,44.68 C51.0366667,44.2666667 51.6466667,43.84 52.22,43.4 C52.34,43.6133333 52.4433333,43.8266667 52.53,44.04 C52.6166667,44.2533333 52.6933333,44.4666667 52.76,44.68 C51.8266667,45.4133333 50.9366667,46.06 50.09,46.62 C49.2433333,47.18 48.43,47.67 47.65,48.09 C46.87,48.51 46.1133333,48.87 45.38,49.17 C44.6466667,49.47 43.9266667,49.7266667 43.22,49.94 C42.8066667,50.06 42.5266667,50.1966667 42.38,50.35 C42.2333333,50.5033333 42.1933333,50.72 42.26,51 C42.3533333,51.5466667 42.8066667,51.6866667 43.62,51.42 C44.5666667,51.0866667 45.4433333,50.7466667 46.25,50.4 C47.0566667,50.0533333 47.8333333,49.68 48.58,49.28 C49.3266667,48.88 50.06,48.4433333 50.78,47.97 C51.5,47.4966667 52.2466667,46.96 53.02,46.36 C53.0466667,47.04 52.9666667,47.7533333 52.78,48.5 C52.5933333,49.2466667 52.3133333,49.8433333 51.94,50.29 C51.5666667,50.7366667 51.1066667,50.96 50.56,50.96 C50.24,50.96 49.9066667,50.9133333 49.56,50.82 C49.2133333,50.7266667 48.8266667,50.5866667 48.4,50.4 C48.08,50.2666667 47.83,50.2366667 47.65,50.31 C47.47,50.3833333 47.34,50.5333333 47.26,50.76 C47.1533333,51 47.14,51.2033333 47.22,51.37 C47.3,51.5366667 47.5133333,51.6933333 47.86,51.84 C48.7533333,52.24 49.6666667,52.44 50.6,52.44 Z M79.24,52.06 C79.88,52.06 80.3266667,51.92 80.58,51.64 C80.8333333,51.36 80.96,50.9 80.96,50.26 L80.96,50.26 L80.96,36.18 C80.96,35.54 80.8333333,35.0766667 80.58,34.79 C80.3266667,34.5033333 79.88,34.36 79.24,34.36 L79.24,34.36 L65.46,34.36 C64.8066667,34.36 64.3633333,34.5033333 64.13,34.79 C63.8966667,35.0766667 63.78,35.54 63.78,36.18 L63.78,36.18 L63.78,50.26 C63.78,50.9 63.8966667,51.36 64.13,51.64 C64.3633333,51.92 64.8066667,52.06 65.46,52.06 L65.46,52.06 L79.24,52.06 Z M79.22,50.52 L65.46,50.52 C65.3533333,50.52 65.3,50.42 65.3,50.22 L65.3,50.22 L65.3,36.18 C65.3,36.0066667 65.3533333,35.92 65.46,35.92 L65.46,35.92 L79.22,35.92 C79.3533333,35.92 79.42,36.0066667 79.42,36.18 L79.42,36.18 L79.42,50.22 C79.42,50.42 79.3533333,50.52 79.22,50.52 L79.22,50.52 Z M77.06,38.88 C77.3266667,38.88 77.5166667,38.81 77.63,38.67 C77.7433333,38.53 77.8,38.36 77.8,38.16 C77.8,37.9333333 77.7433333,37.76 77.63,37.64 C77.5166667,37.52 77.3266667,37.46 77.06,37.46 L77.06,37.46 L67.62,37.46 C67.3266667,37.46 67.1266667,37.52 67.02,37.64 C66.9133333,37.76 66.86,37.9333333 66.86,38.16 C66.86,38.36 66.9133333,38.53 67.02,38.67 C67.1266667,38.81 67.3266667,38.88 67.62,38.88 L67.62,38.88 L77.06,38.88 Z M66.46,50.13 C66.6333333,50.1233333 66.8866667,50 67.22,49.76 C67.9266667,49.2533333 68.5166667,48.7666667 68.99,48.3 C69.4633333,47.8333333 69.8466667,47.3333333 70.14,46.8 C70.4333333,46.2666667 70.6433333,45.67 70.77,45.01 C70.8966667,44.35 70.9666667,43.5733333 70.98,42.68 L70.98,42.68 L73.16,42.68 L73.16,46.48 C73.16,47.16 73.1966667,47.7066667 73.27,48.12 C73.3433333,48.5333333 73.48,48.8533333 73.68,49.08 C73.88,49.3066667 74.1633333,49.46 74.53,49.54 C74.8966667,49.62 75.3733333,49.66 75.96,49.66 C76.56,49.66 77.0533333,49.6233333 77.44,49.55 C77.8266667,49.4766667 78.13,49.31 78.35,49.05 C78.57,48.79 78.7166667,48.41 78.79,47.91 C78.8633333,47.41 78.8933333,46.7333333 78.88,45.88 C78.88,45.5733333 78.83,45.33 78.73,45.15 C78.63,44.97 78.44,44.88 78.16,44.88 C77.88,44.88 77.6933333,44.96 77.6,45.12 C77.5066667,45.28 77.46,45.52 77.46,45.84 C77.4733333,46.4266667 77.4666667,46.88 77.44,47.2 C77.4133333,47.52 77.3566667,47.7566667 77.27,47.91 C77.1833333,48.0633333 77.0466667,48.1566667 76.86,48.19 C76.6733333,48.2233333 76.4266667,48.24 76.12,48.24 C75.8,48.24 75.5433333,48.23 75.35,48.21 C75.1566667,48.19 75.01,48.1233333 74.91,48.01 C74.81,47.8966667 74.7433333,47.7266667 74.71,47.5 C74.6766667,47.2733333 74.66,46.9533333 74.66,46.54 L74.66,46.54 L74.66,42.68 L77.76,42.68 C78.04,42.68 78.24,42.62 78.36,42.5 C78.48,42.38 78.54,42.2 78.54,41.96 C78.54,41.7466667 78.4833333,41.5766667 78.37,41.45 C78.2566667,41.3233333 78.06,41.26 77.78,41.26 L77.78,41.26 L66.7,41.26 C66.4333333,41.26 66.2433333,41.3233333 66.13,41.45 C66.0166667,41.5766667 65.96,41.7466667 65.96,41.96 C65.96,42.2 66.0166667,42.38 66.13,42.5 C66.2433333,42.62 66.4333333,42.68 66.7,42.68 L66.7,42.68 L69.5,42.68 C69.46,43.4933333 69.39,44.1733333 69.29,44.72 C69.19,45.2666667 69.0233333,45.7566667 68.79,46.19 C68.5566667,46.6233333 68.24,47.0233333 67.84,47.39 C67.44,47.7566667 66.92,48.1666667 66.28,48.62 C65.9733333,48.8466667 65.7966667,49.05 65.75,49.23 C65.7033333,49.41 65.76,49.6 65.92,49.8 C66.1066667,50.0266667 66.2866667,50.1366667 66.46,50.13 Z" id="南大家园" fill="#FFFFFF"></path>
                <path d="M91.3925781,51.1289062 C92.1803385,51.1145833 92.8606771,50.9319661 93.4335938,50.5810547 C94.0208333,50.2444661 94.4684245,49.8720703 94.7763672,49.4638672 C95.1272786,49.0485026 95.3779297,48.5722656 95.5283203,48.0351562 C95.6715495,47.4908854 95.7431641,46.7102865 95.7431641,45.6933594 C95.7431641,45.0345052 95.7216797,44.4794922 95.6787109,44.0283203 C95.6357422,43.5843099 95.5641276,43.2083333 95.4638672,42.9003906 C95.2705078,42.3346354 94.9554036,41.8369141 94.5185547,41.4072266 C94.2249349,41.0849609 93.8417969,40.8128255 93.3691406,40.5908203 C92.8678385,40.3902995 92.3164062,40.2828776 91.7148438,40.2685547 C90.7766927,40.2685547 89.9423828,40.555013 89.2119141,41.1279297 L89.2119141,37.5830078 L95.4423828,37.5830078 L95.4423828,35.3378906 L87.0957031,35.3378906 L87.0957031,43.8027344 L89.2119141,43.8027344 C89.476888,43.3229167 89.7776693,42.9863281 90.1142578,42.7929688 C90.4508464,42.6067708 90.8232422,42.5136719 91.2314453,42.5136719 C91.6897786,42.5136719 92.0729167,42.578125 92.3808594,42.7070312 C92.6888021,42.8645833 92.9215495,43.0758464 93.0791016,43.3408203 C93.3727214,43.8994141 93.5123698,44.6263021 93.4980469,45.5214844 C93.4980469,45.8867188 93.4908854,46.2626953 93.4765625,46.6494141 C93.4479167,47.0432943 93.3691406,47.4085286 93.2402344,47.7451172 C93.1184896,48.0817057 92.9036458,48.3538411 92.5957031,48.5615234 C92.2734375,48.7763672 91.84375,48.8837891 91.3066406,48.8837891 C90.0533854,48.8694661 89.305013,48.2607422 89.0615234,47.0576172 L86.8164062,47.0576172 C87.03125,48.4970703 87.586263,49.5390625 88.4814453,50.1835938 C89.3623047,50.8138021 90.3326823,51.1289062 91.3925781,51.1289062 Z M100.244675,51 L100.244675,48.7548828 L97.9995575,48.7548828 L97.9995575,51 L100.244675,51 Z M106.959076,51.1289062 C108.176524,51.1145833 109.211355,50.7207031 110.063568,49.9472656 C110.930105,49.1666667 111.377696,48.0566406 111.406342,46.6171875 L111.406342,39.7099609 C111.377696,38.2633464 110.930105,37.1497396 110.063568,36.3691406 C109.211355,35.5957031 108.176524,35.2089844 106.959076,35.2089844 C105.777435,35.2089844 104.760508,35.5957031 103.908295,36.3691406 C102.99879,37.1497396 102.536875,38.2633464 102.522553,39.7099609 L102.522553,46.6171875 C102.536875,48.0566406 102.99879,49.1666667 103.908295,49.9472656 C104.760508,50.7207031 105.777435,51.1145833 106.959076,51.1289062 Z M106.959076,48.8837891 C105.526784,48.8694661 104.796316,48.0709635 104.76767,46.4882812 L104.76767,39.8496094 C104.796316,38.28125 105.526784,37.4827474 106.959076,37.4541016 C108.384206,37.4827474 109.118256,38.28125 109.161224,39.8496094 L109.161224,46.4882812 C109.118256,48.0709635 108.384206,48.8694661 106.959076,48.8837891 Z" id="5.0" fill="#CD8CFF"></path>
                <path d="M1.6,27.456 C1.80266667,27.456 1.904,27.3466667 1.904,27.128 L1.904,27.128 L1.904,21.808 C2.09066667,21.3493333 2.25333333,20.8666667 2.392,20.36 C2.44,20.184 2.452,20.056 2.428,19.976 C2.404,19.896 2.33333333,19.8426667 2.216,19.816 C2.104,19.7893333 2.01733333,19.8106667 1.956,19.88 C1.89466667,19.9493333 1.84266667,20.0613333 1.8,20.216 C1.66133333,20.7653333 1.48,21.2946667 1.256,21.804 C1.032,22.3133333 0.744,22.832 0.392,23.36 C0.269333333,23.536 0.205333333,23.672 0.2,23.768 C0.194666667,23.864 0.237333333,23.9413333 0.328,24 C0.424,24.064 0.512,24.0773333 0.592,24.04 C0.672,24.0026667 0.765333333,23.904 0.872,23.744 C0.946666667,23.6266667 1.02,23.512 1.092,23.4 C1.164,23.288 1.23466667,23.1706667 1.304,23.048 L1.304,23.048 L1.304,27.128 C1.304,27.3466667 1.40266667,27.456 1.6,27.456 Z M4.576,27.36 C4.832,27.376 5.032,27.3173333 5.176,27.184 C5.32,27.0506667 5.392,26.8053333 5.392,26.448 L5.392,26.448 L5.392,21.36 L6.712,21.36 C6.81866667,21.36 6.888,21.3706667 6.92,21.392 C6.952,21.4133333 6.96266667,21.4746667 6.952,21.576 C6.94666667,21.656 6.91866667,21.7653333 6.868,21.904 C6.81733333,22.0426667 6.76533333,22.1706667 6.712,22.288 C6.648,22.432 6.62666667,22.5386667 6.648,22.608 C6.66933333,22.6773333 6.728,22.7413333 6.824,22.8 C6.904,22.848 6.98533333,22.856 7.068,22.824 C7.15066667,22.792 7.22666667,22.7013333 7.296,22.552 C7.38133333,22.3653333 7.444,22.184 7.484,22.008 C7.524,21.832 7.54933333,21.6746667 7.56,21.536 C7.576,21.264 7.52533333,21.0666667 7.408,20.944 C7.29066667,20.8213333 7.096,20.76 6.824,20.76 L6.824,20.76 L3.704,20.76 C3.72533333,20.6906667 3.744,20.62 3.76,20.548 C3.776,20.476 3.79466667,20.4026667 3.816,20.328 C3.85866667,20.1573333 3.85866667,20.0346667 3.816,19.96 C3.77333333,19.8853333 3.69866667,19.8426667 3.592,19.832 C3.50133333,19.8213333 3.424,19.8426667 3.36,19.896 C3.296,19.9493333 3.25066667,20.0453333 3.224,20.184 C3.13866667,20.584 3.024,20.9693333 2.88,21.34 C2.736,21.7106667 2.53333333,22.0906667 2.272,22.48 C2.192,22.5866667 2.15733333,22.6866667 2.168,22.78 C2.17866667,22.8733333 2.216,22.9413333 2.28,22.984 C2.37066667,23.0426667 2.456,23.0626667 2.536,23.044 C2.616,23.0253333 2.696,22.952 2.776,22.824 C2.936,22.5573333 3.07466667,22.3066667 3.192,22.072 C3.30933333,21.8373333 3.41333333,21.6 3.504,21.36 L3.504,21.36 L4.784,21.36 L4.784,26.432 C4.784,26.5386667 4.768,26.6186667 4.736,26.672 C4.704,26.7253333 4.64533333,26.752 4.56,26.752 C4.48533333,26.752 4.39733333,26.7386667 4.296,26.712 C4.19466667,26.6853333 4.056,26.64 3.88,26.576 C3.75733333,26.5226667 3.65333333,26.5026667 3.568,26.516 C3.48266667,26.5293333 3.41866667,26.5866667 3.376,26.688 C3.328,26.7946667 3.32933333,26.888 3.38,26.968 C3.43066667,27.048 3.51733333,27.1093333 3.64,27.152 C3.86933333,27.2373333 4.052,27.292 4.188,27.316 C4.324,27.34 4.45333333,27.3546667 4.576,27.36 Z M2.392,26.456 C2.48266667,26.4986667 2.564,26.5053333 2.636,26.476 C2.708,26.4466667 2.77866667,26.3706667 2.848,26.248 C3.088,25.816 3.30666667,25.336 3.504,24.808 C3.70133333,24.28 3.86133333,23.7466667 3.984,23.208 L3.984,23.208 L3.976,23.216 C4.01333333,23.072 4.01466667,22.9626667 3.98,22.888 C3.94533333,22.8133333 3.86666667,22.7626667 3.744,22.736 C3.65333333,22.7146667 3.572,22.74 3.5,22.812 C3.428,22.884 3.38133333,22.9706667 3.36,23.072 C3.312,23.2906667 3.248,23.528 3.168,23.784 C3.088,24.04 3,24.296 2.904,24.552 C2.808,24.808 2.70533333,25.0586667 2.596,25.304 C2.48666667,25.5493333 2.37866667,25.7706667 2.272,25.968 C2.21333333,26.0746667 2.192,26.1693333 2.208,26.252 C2.224,26.3346667 2.28533333,26.4026667 2.392,26.456 Z M6.992,26.12 C7.06666667,26.4026667 7.216,26.504 7.44,26.424 C7.54666667,26.3813333 7.61066667,26.3213333 7.632,26.244 C7.65333333,26.1666667 7.64533333,26.056 7.608,25.912 C7.48533333,25.448 7.34,24.9826667 7.172,24.516 C7.004,24.0493333 6.81333333,23.568 6.6,23.072 C6.55733333,22.9653333 6.49733333,22.8893333 6.42,22.844 C6.34266667,22.7986667 6.25333333,22.7973333 6.152,22.84 C6.06666667,22.8773333 6.01066667,22.9413333 5.984,23.032 C5.95733333,23.1226667 5.97333333,23.2346667 6.032,23.368 C6.224,23.8 6.40533333,24.2493333 6.576,24.716 C6.74666667,25.1826667 6.88533333,25.6506667 6.992,26.12 Z M12.12,26.984 C12.3706667,26.984 12.5426667,26.9293333 12.636,26.82 C12.7293333,26.7106667 12.776,26.5333333 12.776,26.288 L12.776,26.288 L12.776,21.448 C12.776,21.2026667 12.7293333,21.0266667 12.636,20.92 C12.5426667,20.8133333 12.3706667,20.76 12.12,20.76 L12.12,20.76 L11.592,20.76 C11.6186667,20.696 11.6426667,20.6293333 11.664,20.56 C11.6853333,20.4906667 11.7093333,20.4186667 11.736,20.344 C11.7786667,20.1946667 11.792,20.0813333 11.776,20.004 C11.76,19.9266667 11.6933333,19.8666667 11.576,19.824 C11.4586667,19.7866667 11.3613333,19.796 11.284,19.852 C11.2066667,19.908 11.1546667,19.992 11.128,20.104 C11.1013333,20.1946667 11.0706667,20.2946667 11.036,20.404 C11.0013333,20.5133333 10.96,20.632 10.912,20.76 L10.912,20.76 L10.472,20.76 C10.2213333,20.76 10.052,20.8133333 9.964,20.92 C9.876,21.0266667 9.832,21.2026667 9.832,21.448 L9.832,21.448 L9.832,26.288 C9.832,26.5333333 9.876,26.7106667 9.964,26.82 C10.052,26.9293333 10.2213333,26.984 10.472,26.984 L10.472,26.984 L12.12,26.984 Z M15.264,27.312 C15.472,27.3386667 15.6546667,27.328 15.812,27.28 C15.9693333,27.232 16.1053333,27.1386667 16.22,27 C16.3346667,26.8613333 16.428,26.672 16.5,26.432 C16.572,26.192 16.6293333,25.888 16.672,25.52 C16.688,25.3653333 16.7053333,25.1506667 16.724,24.876 C16.7426667,24.6013333 16.7586667,24.3 16.772,23.972 C16.7853333,23.644 16.796,23.3066667 16.804,22.96 C16.812,22.6133333 16.8133333,22.296 16.808,22.008 C16.8026667,21.752 16.7866667,21.5426667 16.76,21.38 C16.7333333,21.2173333 16.6853333,21.092 16.616,21.004 C16.5466667,20.916 16.456,20.856 16.344,20.824 C16.232,20.792 16.088,20.776 15.912,20.776 L15.912,20.776 L14.288,20.776 C14.3146667,20.6853333 14.336,20.5946667 14.352,20.504 C14.368,20.4133333 14.3866667,20.3173333 14.408,20.216 C14.4293333,20.0986667 14.416,20.0066667 14.368,19.94 C14.32,19.8733333 14.248,19.8346667 14.152,19.824 C14.0666667,19.8133333 13.9893333,19.8306667 13.92,19.876 C13.8506667,19.9213333 13.8053333,20.008 13.784,20.136 C13.7093333,20.568 13.6066667,20.976 13.476,21.36 C13.3453333,21.744 13.176,22.0906667 12.968,22.4 C12.888,22.5226667 12.8466667,22.6333333 12.844,22.732 C12.8413333,22.8306667 12.8773333,22.904 12.952,22.952 C13.0426667,23.0106667 13.1346667,23.0253333 13.228,22.996 C13.3213333,22.9666667 13.4106667,22.8826667 13.496,22.744 C13.6293333,22.5306667 13.7466667,22.312 13.848,22.088 C13.9493333,21.864 14.0426667,21.624 14.128,21.368 L14.128,21.368 L15.808,21.368 C15.952,21.368 16.052,21.4026667 16.108,21.472 C16.164,21.5413333 16.192,21.664 16.192,21.84 C16.192,22.2346667 16.1906667,22.5826667 16.188,22.884 C16.1853333,23.1853333 16.18,23.4626667 16.172,23.716 C16.164,23.9693333 16.1533333,24.208 16.14,24.432 C16.1266667,24.656 16.1093333,24.8826667 16.088,25.112 C16.0613333,25.4533333 16.024,25.732 15.976,25.948 C15.928,26.164 15.8693333,26.3306667 15.8,26.448 C15.7306667,26.5653333 15.6493333,26.6413333 15.556,26.676 C15.4626667,26.7106667 15.352,26.7173333 15.224,26.696 C15.064,26.6693333 14.892,26.6293333 14.708,26.576 C14.524,26.5226667 14.3493333,26.464 14.184,26.4 C14.0666667,26.3573333 13.9626667,26.34 13.872,26.348 C13.7813333,26.356 13.7146667,26.4106667 13.672,26.512 C13.624,26.624 13.6186667,26.7186667 13.656,26.796 C13.6933333,26.8733333 13.8026667,26.9466667 13.984,27.016 C14.0906667,27.0586667 14.192,27.0946667 14.288,27.124 C14.384,27.1533333 14.4813333,27.1786667 14.58,27.2 C14.6786667,27.2213333 14.7826667,27.2413333 14.892,27.26 C15.0013333,27.2786667 15.1253333,27.296 15.264,27.312 Z M12.136,23.416 L10.472,23.416 L10.472,21.536 C10.472,21.4453333 10.5013333,21.4 10.56,21.4 L10.56,21.4 L12.032,21.4 C12.1013333,21.4 12.136,21.4453333 12.136,21.536 L12.136,21.536 L12.136,23.416 Z M14.952,24.808 C15.0746667,25.1066667 15.2346667,25.2053333 15.432,25.104 C15.5386667,25.0453333 15.596,24.972 15.604,24.884 C15.612,24.796 15.5786667,24.6746667 15.504,24.52 C15.1946667,23.8693333 14.8506667,23.2346667 14.472,22.616 C14.3973333,22.4933333 14.32,22.424 14.24,22.408 C14.16,22.392 14.0826667,22.4106667 14.008,22.464 C13.9226667,22.5226667 13.8786667,22.5973333 13.876,22.688 C13.8733333,22.7786667 13.9013333,22.8693333 13.96,22.96 C14.152,23.264 14.3346667,23.5733333 14.508,23.888 C14.6813333,24.2026667 14.8293333,24.5093333 14.952,24.808 Z M12.032,26.344 L10.56,26.344 C10.5333333,26.344 10.512,26.3306667 10.496,26.304 C10.48,26.2773333 10.472,26.2426667 10.472,26.2 L10.472,26.2 L10.472,24.056 L12.136,24.056 L12.136,26.2 C12.136,26.296 12.1013333,26.344 12.032,26.344 L12.032,26.344 Z M26.168,21.288 C26.2746667,21.288 26.348,21.2666667 26.388,21.224 C26.428,21.1813333 26.448,21.1066667 26.448,21 C26.448,20.904 26.428,20.828 26.388,20.772 C26.348,20.716 26.2746667,20.688 26.168,20.688 L26.168,20.688 L24.344,20.688 C24.2853333,20.5333333 24.2266667,20.3946667 24.168,20.272 C24.1093333,20.1493333 24.0506667,20.0346667 23.992,19.928 C23.9546667,19.8693333 23.8973333,19.8213333 23.82,19.784 C23.7426667,19.7466667 23.6586667,19.7546667 23.568,19.808 C23.4933333,19.8506667 23.4413333,19.9093333 23.412,19.984 C23.3826667,20.0586667 23.3946667,20.1413333 23.448,20.232 C23.528,20.4026667 23.6,20.5546667 23.664,20.688 L23.664,20.688 L22.112,20.688 C22,20.688 21.9226667,20.712 21.88,20.76 C21.8373333,20.808 21.816,20.88 21.816,20.976 C21.816,21.0826667 21.8373333,21.1613333 21.88,21.212 C21.9226667,21.2626667 22,21.288 22.112,21.288 L22.112,21.288 L26.168,21.288 Z M20.448,27.424 C20.5333333,27.424 20.604,27.4026667 20.66,27.36 C20.716,27.3173333 20.744,27.2426667 20.744,27.136 L20.744,27.136 L20.744,23.064 C20.8026667,23.1866667 20.8626667,23.3106667 20.924,23.436 C20.9853333,23.5613333 21.0453333,23.68 21.104,23.792 C21.152,23.9093333 21.2133333,23.984 21.288,24.016 C21.3626667,24.048 21.4426667,24.032 21.528,23.968 C21.6133333,23.904 21.66,23.8333333 21.668,23.756 C21.676,23.6786667 21.6533333,23.5946667 21.6,23.504 C21.4666667,23.264 21.332,23.0293333 21.196,22.8 C21.06,22.5706667 20.9093333,22.3306667 20.744,22.08 L20.744,22.08 L20.744,21.88 L21.44,21.88 C21.6213333,21.88 21.712,21.7813333 21.712,21.584 C21.712,21.4933333 21.692,21.4213333 21.652,21.368 C21.612,21.3146667 21.5413333,21.288 21.44,21.288 L21.44,21.288 L20.744,21.288 L20.744,20.096 C20.744,19.9893333 20.716,19.916 20.66,19.876 C20.604,19.836 20.5333333,19.816 20.448,19.816 C20.3626667,19.816 20.292,19.8333333 20.236,19.868 C20.18,19.9026667 20.152,19.9786667 20.152,20.096 L20.152,20.096 L20.152,21.288 L19.36,21.288 C19.2586667,21.288 19.1933333,21.3146667 19.164,21.368 C19.1346667,21.4213333 19.12,21.4933333 19.12,21.584 C19.12,21.6746667 19.136,21.7466667 19.168,21.8 C19.2,21.8533333 19.264,21.88 19.36,21.88 L19.36,21.88 L20.064,21.88 C19.9786667,22.1946667 19.896,22.484 19.816,22.748 C19.736,23.012 19.6533333,23.2573333 19.568,23.484 C19.4826667,23.7106667 19.3946667,23.9253333 19.304,24.128 C19.2133333,24.3306667 19.1146667,24.5306667 19.008,24.728 C18.944,24.8506667 18.9173333,24.9546667 18.928,25.04 C18.9386667,25.1253333 18.9813333,25.1866667 19.056,25.224 C19.1306667,25.2613333 19.2013333,25.2693333 19.268,25.248 C19.3346667,25.2266667 19.4053333,25.1493333 19.48,25.016 C19.6186667,24.7653333 19.7413333,24.5186667 19.848,24.276 C19.9546667,24.0333333 20.056,23.768 20.152,23.48 L20.152,23.48 L20.152,27.136 C20.152,27.248 20.18,27.324 20.236,27.364 C20.292,27.404 20.3626667,27.424 20.448,27.424 Z M26.056,23.772 C26.12,23.8066667 26.1973333,23.8 26.288,23.752 C26.3786667,23.7093333 26.4346667,23.6466667 26.456,23.564 C26.4773333,23.4813333 26.4506667,23.368 26.376,23.224 C26.2213333,22.9253333 26.056,22.64 25.88,22.368 C25.704,22.096 25.5146667,21.816 25.312,21.528 C25.1733333,21.3413333 25.016,21.312 24.84,21.44 C24.7706667,21.4933333 24.7386667,21.5586667 24.744,21.636 C24.7493333,21.7133333 24.7813333,21.7973333 24.84,21.888 C25.0373333,22.16 25.2213333,22.4253333 25.392,22.684 C25.5626667,22.9426667 25.7173333,23.2186667 25.856,23.512 C25.9253333,23.6506667 25.992,23.7373333 26.056,23.772 Z M22.00256,23.7504 L22.052,23.74 C22.1346667,23.7106667 22.2186667,23.6426667 22.304,23.536 C22.416,23.392 22.5133333,23.26 22.596,23.14 C22.6786667,23.02 22.7546667,22.8973333 22.824,22.772 C22.8933333,22.6466667 22.9626667,22.5106667 23.032,22.364 C23.1013333,22.2173333 23.1813333,22.0453333 23.272,21.848 C23.32,21.7413333 23.3333333,21.652 23.312,21.58 C23.2906667,21.508 23.2266667,21.4506667 23.12,21.408 C23.0186667,21.3653333 22.9373333,21.3693333 22.876,21.42 C22.8146667,21.4706667 22.7653333,21.5493333 22.728,21.656 C22.6693333,21.8213333 22.6106667,21.9706667 22.552,22.104 C22.4933333,22.2373333 22.4293333,22.36 22.36,22.472 C22.2906667,22.584 22.216,22.692 22.136,22.796 C22.056,22.9 21.968,23.008 21.872,23.12 C21.7706667,23.232 21.716,23.3293333 21.708,23.412 C21.7,23.4946667 21.7333333,23.5733333 21.808,23.648 C21.888,23.7386667 21.9693333,23.7693333 22.052,23.74 L22.00256,23.7504 Z M21.652,27.416 C21.7293333,27.416 21.8213333,27.392 21.928,27.344 C22.3813333,27.1306667 22.7866667,26.9106667 23.144,26.684 C23.5013333,26.4573333 23.8213333,26.208 24.104,25.936 C24.36,26.192 24.644,26.4293333 24.956,26.648 C25.268,26.8666667 25.6133333,27.0826667 25.992,27.296 C26.1253333,27.3706667 26.236,27.4093333 26.324,27.412 C26.412,27.4146667 26.4826667,27.3626667 26.536,27.256 C26.5786667,27.176 26.5853333,27.092 26.556,27.004 C26.5266667,26.916 26.4266667,26.8293333 26.256,26.744 C25.92,26.5733333 25.6066667,26.3853333 25.316,26.18 C25.0253333,25.9746667 24.7573333,25.7466667 24.512,25.496 C24.9546667,24.9466667 25.2853333,24.2693333 25.504,23.464 C25.5466667,23.2933333 25.5586667,23.1706667 25.54,23.096 C25.5213333,23.0213333 25.4666667,22.9626667 25.376,22.92 C25.2746667,22.8773333 25.188,22.8813333 25.116,22.932 C25.044,22.9826667 24.9946667,23.0693333 24.968,23.192 C24.792,23.9173333 24.504,24.5306667 24.104,25.032 C23.9066667,24.7813333 23.7333333,24.5173333 23.584,24.24 C23.4346667,23.9626667 23.3146667,23.6693333 23.224,23.36 C23.1813333,23.2053333 23.1253333,23.1066667 23.056,23.064 C22.9866667,23.0213333 22.8986667,23.0213333 22.792,23.064 C22.7013333,23.1066667 22.652,23.1653333 22.644,23.24 C22.636,23.3146667 22.656,23.4373333 22.704,23.608 C22.8106667,23.9813333 22.9453333,24.3213333 23.108,24.628 C23.2706667,24.9346667 23.464,25.224 23.688,25.496 C23.432,25.7466667 23.136,25.976 22.8,26.184 C22.464,26.392 22.0853333,26.5893333 21.664,26.776 C21.5626667,26.824 21.492,26.892 21.452,26.98 C21.412,27.068 21.416,27.16 21.464,27.256 C21.512,27.3626667 21.5746667,27.416 21.652,27.416 Z M34.936,27.224 C35.192,27.224 35.3706667,27.168 35.472,27.056 C35.5733333,26.944 35.624,26.76 35.624,26.504 L35.624,26.504 L35.624,20.872 C35.624,20.616 35.5733333,20.4306667 35.472,20.316 C35.3706667,20.2013333 35.192,20.144 34.936,20.144 L34.936,20.144 L29.424,20.144 C29.1626667,20.144 28.9853333,20.2013333 28.892,20.316 C28.7986667,20.4306667 28.752,20.616 28.752,20.872 L28.752,20.872 L28.752,26.504 C28.752,26.76 28.7986667,26.944 28.892,27.056 C28.9853333,27.168 29.1626667,27.224 29.424,27.224 L29.424,27.224 L34.936,27.224 Z M34.928,26.608 L29.424,26.608 C29.3813333,26.608 29.36,26.568 29.36,26.488 L29.36,26.488 L29.36,20.872 C29.36,20.8026667 29.3813333,20.768 29.424,20.768 L29.424,20.768 L34.928,20.768 C34.9813333,20.768 35.008,20.8026667 35.008,20.872 L35.008,20.872 L35.008,26.488 C35.008,26.568 34.9813333,26.608 34.928,26.608 L34.928,26.608 Z M34.064,21.952 C34.1706667,21.952 34.2466667,21.924 34.292,21.868 C34.3373333,21.812 34.36,21.744 34.36,21.664 C34.36,21.5733333 34.3373333,21.504 34.292,21.456 C34.2466667,21.408 34.1706667,21.384 34.064,21.384 L34.064,21.384 L30.288,21.384 C30.1706667,21.384 30.0906667,21.408 30.048,21.456 C30.0053333,21.504 29.984,21.5733333 29.984,21.664 C29.984,21.744 30.0053333,21.812 30.048,21.868 C30.0906667,21.924 30.1706667,21.952 30.288,21.952 L30.288,21.952 L34.064,21.952 Z M29.824,26.452 C29.8933333,26.4493333 29.9946667,26.4 30.128,26.304 C30.4106667,26.1013333 30.6466667,25.9066667 30.836,25.72 C31.0253333,25.5333333 31.1786667,25.3333333 31.296,25.12 C31.4133333,24.9066667 31.4973333,24.668 31.548,24.404 C31.5986667,24.14 31.6266667,23.8293333 31.632,23.472 L31.632,23.472 L32.504,23.472 L32.504,24.992 C32.504,25.264 32.5186667,25.4826667 32.548,25.648 C32.5773333,25.8133333 32.632,25.9413333 32.712,26.032 C32.792,26.1226667 32.9053333,26.184 33.052,26.216 C33.1986667,26.248 33.3893333,26.264 33.624,26.264 C33.864,26.264 34.0613333,26.2493333 34.216,26.22 C34.3706667,26.1906667 34.492,26.124 34.58,26.02 C34.668,25.916 34.7266667,25.764 34.756,25.564 C34.7853333,25.364 34.7973333,25.0933333 34.792,24.752 C34.792,24.6293333 34.772,24.532 34.732,24.46 C34.692,24.388 34.616,24.352 34.504,24.352 C34.392,24.352 34.3173333,24.384 34.28,24.448 C34.2426667,24.512 34.224,24.608 34.224,24.736 C34.2293333,24.9706667 34.2266667,25.152 34.216,25.28 C34.2053333,25.408 34.1826667,25.5026667 34.148,25.564 C34.1133333,25.6253333 34.0586667,25.6626667 33.984,25.676 C33.9093333,25.6893333 33.8106667,25.696 33.688,25.696 C33.56,25.696 33.4573333,25.692 33.38,25.684 C33.3026667,25.676 33.244,25.6493333 33.204,25.604 C33.164,25.5586667 33.1373333,25.4906667 33.124,25.4 C33.1106667,25.3093333 33.104,25.1813333 33.104,25.016 L33.104,25.016 L33.104,23.472 L34.344,23.472 C34.456,23.472 34.536,23.448 34.584,23.4 C34.632,23.352 34.656,23.28 34.656,23.184 C34.656,23.0986667 34.6333333,23.0306667 34.588,22.98 C34.5426667,22.9293333 34.464,22.904 34.352,22.904 L34.352,22.904 L29.92,22.904 C29.8133333,22.904 29.7373333,22.9293333 29.692,22.98 C29.6466667,23.0306667 29.624,23.0986667 29.624,23.184 C29.624,23.28 29.6466667,23.352 29.692,23.4 C29.7373333,23.448 29.8133333,23.472 29.92,23.472 L29.92,23.472 L31.04,23.472 C31.024,23.7973333 30.996,24.0693333 30.956,24.288 C30.916,24.5066667 30.8493333,24.7026667 30.756,24.876 C30.6626667,25.0493333 30.536,25.2093333 30.376,25.356 C30.216,25.5026667 30.008,25.6666667 29.752,25.848 C29.6293333,25.9386667 29.5586667,26.02 29.54,26.092 C29.5213333,26.164 29.544,26.24 29.608,26.32 C29.6826667,26.4106667 29.7546667,26.4546667 29.824,26.452 Z M45.016,27.232 C45.1493333,27.232 45.2386667,27.2066667 45.284,27.156 C45.3293333,27.1053333 45.352,27.0266667 45.352,26.92 C45.352,26.8133333 45.3266667,26.736 45.276,26.688 C45.2253333,26.64 45.1386667,26.616 45.016,26.616 L45.016,26.616 L42.04,26.616 L42.04,24.552 L44.32,24.552 C44.4533333,24.552 44.5426667,24.5266667 44.588,24.476 C44.6333333,24.4253333 44.656,24.3466667 44.656,24.24 C44.656,24.128 44.6306667,24.048 44.58,24 C44.5293333,23.952 44.4426667,23.928 44.32,23.928 L44.32,23.928 L42.04,23.928 L42.04,22.008 L44.696,22.008 C44.8293333,22.008 44.9186667,21.9826667 44.964,21.932 C45.0093333,21.8813333 45.032,21.8053333 45.032,21.704 C45.032,21.592 45.0066667,21.512 44.956,21.464 C44.9053333,21.416 44.8186667,21.392 44.696,21.392 L44.696,21.392 L42.04,21.392 L42.04,20.152 C42.04,20.0186667 42.0146667,19.9293333 41.964,19.884 C41.9133333,19.8386667 41.8373333,19.816 41.736,19.816 C41.624,19.816 41.544,19.8413333 41.496,19.892 C41.448,19.9426667 41.424,20.0293333 41.424,20.152 L41.424,20.152 L41.424,21.392 L39.52,21.392 C39.568,21.2533333 39.6106667,21.1146667 39.648,20.976 C39.6853333,20.8373333 39.7173333,20.7066667 39.744,20.584 C39.776,20.4293333 39.772,20.3106667 39.732,20.228 C39.692,20.1453333 39.6026667,20.1013333 39.464,20.096 C39.272,20.08 39.152,20.2133333 39.104,20.496 C39.0666667,20.6933333 39.0146667,20.9026667 38.948,21.124 C38.8813333,21.3453333 38.804,21.568 38.716,21.792 C38.628,22.016 38.532,22.236 38.428,22.452 C38.324,22.668 38.2133333,22.8666667 38.096,23.048 C38.0106667,23.176 37.9666667,23.2893333 37.964,23.388 C37.9613333,23.4866667 38.0026667,23.5626667 38.088,23.616 C38.2906667,23.7333333 38.4693333,23.6586667 38.624,23.392 C38.7466667,23.1786667 38.8653333,22.9546667 38.98,22.72 C39.0946667,22.4853333 39.2,22.248 39.296,22.008 L39.296,22.008 L41.424,22.008 L41.424,23.928 L38.928,23.928 C38.8,23.928 38.712,23.952 38.664,24 C38.616,24.048 38.592,24.128 38.592,24.24 C38.592,24.3466667 38.6146667,24.4253333 38.66,24.476 C38.7053333,24.5266667 38.7946667,24.552 38.928,24.552 L38.928,24.552 L41.424,24.552 L41.424,26.616 L38.184,26.616 C38.056,26.616 37.968,26.64 37.92,26.688 C37.872,26.736 37.848,26.8133333 37.848,26.92 C37.848,27.0266667 37.8706667,27.1053333 37.916,27.156 C37.9613333,27.2066667 38.0506667,27.232 38.184,27.232 L38.184,27.232 L45.016,27.232 Z M53.592,27.128 C53.8586667,27.128 54.04,27.0826667 54.136,26.992 C54.232,26.9013333 54.28,26.7333333 54.28,26.488 L54.28,26.488 L54.28,24.544 C54.28,24.2933333 54.2266667,24.1226667 54.12,24.032 C54.0133333,23.9413333 53.8373333,23.896 53.592,23.896 L53.592,23.896 L52.368,23.896 L52.368,22.792 L54.44,22.792 C54.5466667,22.792 54.6266667,22.7626667 54.68,22.704 C54.7333333,22.6453333 54.76,22.568 54.76,22.472 C54.76,22.3813333 54.7333333,22.3066667 54.68,22.248 C54.6266667,22.1893333 54.5466667,22.16 54.44,22.16 L54.44,22.16 L52.368,22.16 L52.368,20.912 C52.6506667,20.8693333 52.9186667,20.8213333 53.172,20.768 C53.4253333,20.7146667 53.664,20.6533333 53.888,20.584 C54.048,20.536 54.1546667,20.4813333 54.208,20.42 C54.2613333,20.3586667 54.272,20.2666667 54.24,20.144 C54.2133333,20.0533333 54.1573333,19.9906667 54.072,19.956 C53.9866667,19.9213333 53.8773333,19.9253333 53.744,19.968 C53.4453333,20.0533333 53.1533333,20.1266667 52.868,20.188 C52.5826667,20.2493333 52.2933333,20.3 52,20.34 C51.7066667,20.38 51.404,20.4093333 51.092,20.428 C50.78,20.4466667 50.4453333,20.456 50.088,20.456 C49.896,20.456 49.7653333,20.4826667 49.696,20.536 C49.6266667,20.5893333 49.5946667,20.672 49.6,20.784 C49.6106667,20.896 49.6453333,20.98 49.704,21.036 C49.7626667,21.092 49.8853333,21.1146667 50.072,21.104 C50.3493333,21.0933333 50.6253333,21.0786667 50.9,21.06 C51.1746667,21.0413333 51.448,21.0186667 51.72,20.992 L51.72,20.992 L51.72,22.16 L49.648,22.16 C49.5413333,22.16 49.4613333,22.1893333 49.408,22.248 C49.3546667,22.3066667 49.328,22.3813333 49.328,22.472 C49.328,22.568 49.3546667,22.6453333 49.408,22.704 C49.4613333,22.7626667 49.5413333,22.792 49.648,22.792 L49.648,22.792 L51.72,22.792 L51.72,23.896 L50.488,23.896 C50.2426667,23.896 50.068,23.9413333 49.964,24.032 C49.86,24.1226667 49.808,24.2933333 49.808,24.544 L49.808,24.544 L49.808,26.488 C49.808,26.7386667 49.8613333,26.908 49.968,26.996 C50.0746667,27.084 50.248,27.128 50.488,27.128 L50.488,27.128 L53.592,27.128 Z M48.8,21.464 C49.0186667,21.64 49.184,21.6506667 49.296,21.496 C49.4293333,21.32 49.392,21.152 49.184,20.992 C48.9973333,20.8426667 48.812,20.704 48.628,20.576 C48.444,20.448 48.24,20.3146667 48.016,20.176 C47.808,20.048 47.6506667,20.0586667 47.544,20.208 C47.4853333,20.288 47.4626667,20.3666667 47.476,20.444 C47.4893333,20.5213333 47.5493333,20.592 47.656,20.656 C47.816,20.752 48,20.8733333 48.208,21.02 C48.416,21.1666667 48.6133333,21.3146667 48.8,21.464 Z M48.912,23.748 C48.9973333,23.7506667 49.0693333,23.712 49.128,23.632 C49.1866667,23.5466667 49.2106667,23.468 49.2,23.396 C49.1893333,23.324 49.1226667,23.2346667 49,23.128 C48.8186667,22.9733333 48.6253333,22.824 48.42,22.68 C48.2146667,22.536 47.9866667,22.3866667 47.736,22.232 C47.6346667,22.1733333 47.548,22.148 47.476,22.156 C47.404,22.164 47.3386667,22.216 47.28,22.312 C47.1786667,22.472 47.232,22.6186667 47.44,22.752 C47.6586667,22.8906667 47.864,23.028 48.056,23.164 C48.248,23.3 48.4373333,23.448 48.624,23.608 C48.7306667,23.6986667 48.8266667,23.7453333 48.912,23.748 Z M47.60425,27.33775 L47.66,27.332 C47.732,27.3133333 47.8053333,27.256 47.88,27.16 C48.184,26.776 48.4493333,26.3773333 48.676,25.964 C48.9026667,25.5506667 49.1066667,25.1013333 49.288,24.616 C49.3466667,24.4613333 49.364,24.3466667 49.34,24.272 C49.316,24.1973333 49.2586667,24.1466667 49.168,24.12 C49.0666667,24.088 48.984,24.088 48.92,24.12 C48.856,24.152 48.8026667,24.2293333 48.76,24.352 C48.5786667,24.8213333 48.376,25.2573333 48.152,25.66 C47.928,26.0626667 47.6933333,26.416 47.448,26.72 C47.336,26.8586667 47.2826667,26.968 47.288,27.048 C47.2933333,27.128 47.336,27.1973333 47.416,27.256 C47.5066667,27.3253333 47.588,27.3506667 47.66,27.332 L47.60425,27.33775 Z M53.512,26.52 L50.568,26.52 C50.472,26.52 50.424,26.4853333 50.424,26.416 L50.424,26.416 L50.424,24.624 C50.424,24.5813333 50.4373333,24.5506667 50.464,24.532 C50.4906667,24.5133333 50.5253333,24.504 50.568,24.504 L50.568,24.504 L53.512,24.504 C53.6133333,24.504 53.664,24.544 53.664,24.624 L53.664,24.624 L53.664,26.416 C53.664,26.4853333 53.6133333,26.52 53.512,26.52 L53.512,26.52 Z M58.568,27.44 C58.648,27.44 58.7173333,27.4173333 58.776,27.372 C58.8346667,27.3266667 58.864,27.2506667 58.864,27.144 L58.864,27.144 L58.864,25.8 C59.0506667,25.7466667 59.2333333,25.6946667 59.412,25.644 C59.5906667,25.5933333 59.7653333,25.5386667 59.936,25.48 C60.0693333,25.4373333 60.1546667,25.38 60.192,25.308 C60.2293333,25.236 60.2266667,25.1466667 60.184,25.04 C60.1466667,24.9493333 60.0933333,24.892 60.024,24.868 C59.9546667,24.844 59.8586667,24.8533333 59.736,24.896 C59.5973333,24.944 59.456,24.992 59.312,25.04 C59.168,25.088 59.0186667,25.1333333 58.864,25.176 L58.864,25.176 L58.864,23.904 L59.672,23.904 C59.88,23.904 59.984,23.808 59.984,23.616 C59.984,23.4186667 59.88,23.32 59.672,23.32 L59.672,23.32 L58.864,23.32 L58.864,21.928 C58.864,21.816 58.8373333,21.736 58.784,21.688 C58.7306667,21.64 58.6586667,21.616 58.568,21.616 C58.4826667,21.616 58.4133333,21.64 58.36,21.688 C58.3066667,21.736 58.28,21.816 58.28,21.928 L58.28,21.928 L58.28,23.32 L57.648,23.32 C57.5786667,23.32 57.5373333,23.308 57.524,23.284 C57.5106667,23.26 57.5173333,23.216 57.544,23.152 C57.6986667,22.784 57.8373333,22.444 57.96,22.132 C58.0826667,21.82 58.192,21.512 58.288,21.208 L58.288,21.208 L59.624,21.208 C59.72,21.208 59.792,21.1826667 59.84,21.132 C59.888,21.0813333 59.912,21.0106667 59.912,20.92 C59.912,20.8293333 59.892,20.7586667 59.852,20.708 C59.812,20.6573333 59.736,20.632 59.624,20.632 L59.624,20.632 L58.448,20.632 C58.464,20.5733333 58.48,20.512 58.496,20.448 C58.512,20.384 58.528,20.32 58.544,20.256 C58.5813333,20.1013333 58.5866667,19.988 58.56,19.916 C58.5333333,19.844 58.4586667,19.7946667 58.336,19.768 C58.2293333,19.7413333 58.148,19.7613333 58.092,19.828 C58.036,19.8946667 57.992,20.0053333 57.96,20.16 C57.944,20.24 57.9266667,20.32 57.908,20.4 C57.8893333,20.48 57.8693333,20.5573333 57.848,20.632 L57.848,20.632 L56.904,20.632 C56.7866667,20.632 56.708,20.6573333 56.668,20.708 C56.628,20.7586667 56.608,20.8293333 56.608,20.92 C56.608,21.0106667 56.6306667,21.0813333 56.676,21.132 C56.7213333,21.1826667 56.7973333,21.208 56.904,21.208 L56.904,21.208 L57.688,21.208 C57.6026667,21.48 57.5053333,21.752 57.396,22.024 C57.2866667,22.296 57.1626667,22.576 57.024,22.864 C56.8586667,23.2 56.8226667,23.4573333 56.916,23.636 C57.0093333,23.8146667 57.2426667,23.904 57.616,23.904 L57.616,23.904 L58.28,23.904 L58.28,25.328 C58.0613333,25.3866667 57.836,25.44 57.604,25.488 C57.372,25.536 57.1306667,25.584 56.88,25.632 C56.7466667,25.6586667 56.656,25.7026667 56.608,25.764 C56.56,25.8253333 56.5466667,25.9093333 56.568,26.016 C56.5946667,26.1226667 56.6373333,26.1933333 56.696,26.228 C56.7546667,26.2626667 56.864,26.264 57.024,26.232 C57.2373333,26.1893333 57.4493333,26.144 57.66,26.096 C57.8706667,26.048 58.0773333,26 58.28,25.952 L58.28,25.952 L58.28,27.144 C58.28,27.2506667 58.3093333,27.3266667 58.368,27.372 C58.4266667,27.4173333 58.4933333,27.44 58.568,27.44 Z M59.464,27.4035 L59.528,27.4 C59.6133333,27.384 59.7226667,27.2933333 59.856,27.128 C60.16,26.744 60.412,26.3733333 60.612,26.016 C60.812,25.6586667 60.972,25.2693333 61.092,24.848 C61.212,24.4266667 61.2973333,23.9493333 61.348,23.416 C61.3986667,22.8826667 61.4266667,22.248 61.432,21.512 L61.432,21.512 L62.216,21.512 C62.2906667,21.512 62.328,21.5573333 62.328,21.648 L62.328,21.648 L62.328,26.32 C62.328,26.512 62.3413333,26.6706667 62.368,26.796 C62.3946667,26.9213333 62.4413333,27.0213333 62.508,27.096 C62.5746667,27.1706667 62.6653333,27.2226667 62.78,27.252 C62.8946667,27.2813333 63.04,27.296 63.216,27.296 C63.4186667,27.296 63.5826667,27.2746667 63.708,27.232 C63.8333333,27.1893333 63.9306667,27.0946667 64,26.948 C64.0693333,26.8013333 64.116,26.5866667 64.14,26.304 C64.164,26.0213333 64.176,25.64 64.176,25.16 C64.176,25.0053333 64.156,24.8893333 64.116,24.812 C64.076,24.7346667 63.9946667,24.696 63.872,24.696 C63.7493333,24.696 63.668,24.7333333 63.628,24.808 C63.588,24.8826667 63.568,24.9973333 63.568,25.152 C63.568,25.5146667 63.564,25.7986667 63.556,26.004 C63.548,26.2093333 63.532,26.364 63.508,26.468 C63.484,26.572 63.4493333,26.6373333 63.404,26.664 C63.3586667,26.6906667 63.3013333,26.704 63.232,26.704 C63.1146667,26.704 63.0386667,26.676 63.004,26.62 C62.9693333,26.564 62.952,26.4426667 62.952,26.256 L62.952,26.256 L62.952,21.616 C62.952,21.36 62.8973333,21.1773333 62.788,21.068 C62.6786667,20.9586667 62.4986667,20.904 62.248,20.904 L62.248,20.904 L61.432,20.904 L61.432,20.104 C61.432,19.9813333 61.4066667,19.8946667 61.356,19.844 C61.3053333,19.7933333 61.232,19.768 61.136,19.768 C61.0293333,19.768 60.9493333,19.7933333 60.896,19.844 C60.8426667,19.8946667 60.816,19.9813333 60.816,20.104 L60.816,20.104 L60.816,20.904 L60.296,20.904 C60.1786667,20.904 60.0893333,20.924 60.028,20.964 C59.9666667,21.004 59.936,21.0906667 59.936,21.224 C59.936,21.3466667 59.9666667,21.4253333 60.028,21.46 C60.0893333,21.4946667 60.1786667,21.512 60.296,21.512 L60.296,21.512 L60.816,21.512 C60.8106667,22.232 60.7866667,22.8453333 60.744,23.352 C60.7013333,23.8586667 60.6253333,24.3066667 60.516,24.696 C60.4066667,25.0853333 60.256,25.44 60.064,25.76 C59.872,26.08 59.6293333,26.4133333 59.336,26.76 C59.2293333,26.8826667 59.172,26.9866667 59.164,27.072 C59.156,27.1573333 59.192,27.2373333 59.272,27.312 C59.3573333,27.3866667 59.4426667,27.416 59.528,27.4 L59.464,27.4035 Z M68.91025,26.49325 L68.98,26.476 C69.0733333,26.4413333 69.1653333,26.352 69.256,26.208 C69.3786667,25.984 69.4973333,25.736 69.612,25.464 C69.7266667,25.192 69.8266667,24.9 69.912,24.588 C69.9973333,24.276 70.0653333,23.948 70.116,23.604 C70.1666667,23.26 70.192,22.9066667 70.192,22.544 L70.192,22.544 L70.192,21.192 L71.104,21.192 L71.104,25.4 C71.104,25.4693333 71.1,25.5213333 71.092,25.556 C71.084,25.5906667 71.0613333,25.608 71.024,25.608 C70.9653333,25.608 70.8853333,25.5933333 70.784,25.564 C70.6826667,25.5346667 70.5493333,25.4906667 70.384,25.432 C70.2133333,25.3786667 70.0906667,25.3653333 70.016,25.392 C69.9413333,25.4186667 69.8906667,25.4773333 69.864,25.568 C69.8106667,25.6906667 69.804,25.784 69.844,25.848 C69.884,25.912 69.9813333,25.9733333 70.136,26.032 C70.3226667,26.1013333 70.4866667,26.1506667 70.628,26.18 C70.7693333,26.2093333 70.896,26.224 71.008,26.224 C71.2693333,26.224 71.4546667,26.1546667 71.564,26.016 C71.6733333,25.8773333 71.728,25.6826667 71.728,25.432 L71.728,25.432 L71.728,21.192 L73.264,21.192 C73.392,21.192 73.4746667,21.1693333 73.512,21.124 C73.5493333,21.0786667 73.568,21.0026667 73.568,20.896 C73.568,20.768 73.5453333,20.6853333 73.5,20.648 C73.4546667,20.6106667 73.376,20.592 73.264,20.592 L73.264,20.592 L71.016,20.592 C70.9786667,20.464 70.944,20.348 70.912,20.244 C70.88,20.14 70.8506667,20.0586667 70.824,20 C70.7546667,19.856 70.6773333,19.7693333 70.592,19.74 C70.5066667,19.7106667 70.4053333,19.7253333 70.288,19.784 C70.1973333,19.8373333 70.152,19.8973333 70.152,19.964 C70.152,20.0306667 70.184,20.1333333 70.248,20.272 C70.2693333,20.3146667 70.2906667,20.364 70.312,20.42 C70.3333333,20.476 70.3573333,20.5333333 70.384,20.592 L70.384,20.592 L68.256,20.592 C68.1493333,20.592 68.072,20.608 68.024,20.64 C67.976,20.672 67.952,20.7573333 67.952,20.896 C67.952,21.0346667 67.9733333,21.1186667 68.016,21.148 C68.0586667,21.1773333 68.1386667,21.192 68.256,21.192 L68.256,21.192 L69.568,21.192 L69.568,22.544 C69.568,23.232 69.4866667,23.8586667 69.324,24.424 C69.1613333,24.9893333 68.9546667,25.472 68.704,25.872 C68.6133333,26.0106667 68.568,26.1253333 68.568,26.216 C68.568,26.3066667 68.6133333,26.3813333 68.704,26.44 C68.7946667,26.4986667 68.8866667,26.5106667 68.98,26.476 L68.91025,26.49325 Z M67.528,21.572 C67.5973333,21.5853333 67.6693333,21.5626667 67.744,21.504 C67.8346667,21.424 67.876,21.3413333 67.868,21.256 C67.86,21.1706667 67.8133333,21.08 67.728,20.984 C67.5573333,20.7973333 67.3973333,20.636 67.248,20.5 C67.0986667,20.364 66.9306667,20.216 66.744,20.056 C66.632,19.9546667 66.5386667,19.904 66.464,19.904 C66.3893333,19.904 66.3253333,19.9386667 66.272,20.008 C66.192,20.1146667 66.1586667,20.2026667 66.172,20.272 C66.1853333,20.3413333 66.2373333,20.4106667 66.328,20.48 C66.3973333,20.5333333 66.4746667,20.5973333 66.56,20.672 C66.6453333,20.7466667 66.732,20.824 66.82,20.904 C66.908,20.984 66.9906667,21.064 67.068,21.144 C67.1453333,21.224 67.2133333,21.2986667 67.272,21.368 C67.3733333,21.4906667 67.4586667,21.5586667 67.528,21.572 Z M72.9,25.464 C72.9453333,25.4693333 73.0026667,25.4666667 73.072,25.456 C73.1893333,25.4293333 73.264,25.3786667 73.296,25.304 C73.328,25.2293333 73.3253333,25.0986667 73.288,24.912 C73.208,24.432 73.112,23.96 73,23.496 C72.888,23.032 72.76,22.5466667 72.616,22.04 C72.5733333,21.896 72.5146667,21.8013333 72.44,21.756 C72.3653333,21.7106667 72.2826667,21.7093333 72.192,21.752 C72.0853333,21.7946667 72.0213333,21.8533333 72,21.928 C71.9786667,22.0026667 71.9946667,22.1226667 72.048,22.288 C72.1173333,22.5173333 72.1813333,22.74 72.24,22.956 C72.2986667,23.172 72.3533333,23.3906667 72.404,23.612 C72.4546667,23.8333333 72.5013333,24.0573333 72.544,24.284 C72.5866667,24.5106667 72.6266667,24.7493333 72.664,25 C72.68,25.1066667 72.6973333,25.1933333 72.716,25.26 C72.7346667,25.3266667 72.7586667,25.376 72.788,25.408 C72.8173333,25.44 72.8546667,25.4586667 72.9,25.464 Z M68.016,25.152 C68.1386667,25.2213333 68.2373333,25.2333333 68.312,25.188 C68.3866667,25.1426667 68.4613333,25.04 68.536,24.88 C68.6746667,24.56 68.796,24.1893333 68.9,23.768 C69.004,23.3466667 69.096,22.8453333 69.176,22.264 C69.2026667,22.056 69.1973333,21.9226667 69.16,21.864 C69.1226667,21.8053333 69.0506667,21.768 68.944,21.752 C68.8266667,21.736 68.7413333,21.7573333 68.688,21.816 C68.6346667,21.8746667 68.5946667,21.9973333 68.568,22.184 C68.536,22.4773333 68.5026667,22.7386667 68.468,22.968 C68.4333333,23.1973333 68.392,23.408 68.344,23.6 C68.296,23.792 68.2413333,23.9746667 68.18,24.148 C68.1186667,24.3213333 68.0426667,24.4986667 67.952,24.68 C67.8933333,24.7866667 67.8653333,24.8773333 67.868,24.952 C67.8706667,25.0266667 67.92,25.0933333 68.016,25.152 Z M66.024,27.296 C66.136,27.4666667 66.2933333,27.4853333 66.496,27.352 C66.672,27.24 66.8413333,27.1 67.004,26.932 C67.1666667,26.764 67.2986667,26.5786667 67.4,26.376 C67.5386667,26.5413333 67.6773333,26.6786667 67.816,26.788 C67.9546667,26.8973333 68.1066667,26.9853333 68.272,27.052 C68.4373333,27.1186667 68.6226667,27.1653333 68.828,27.192 C69.0333333,27.2186667 69.272,27.232 69.544,27.232 L69.544,27.232 L73.352,27.232 C73.4693333,27.232 73.548,27.2106667 73.588,27.168 C73.628,27.1253333 73.648,27.0426667 73.648,26.92 C73.648,26.824 73.628,26.752 73.588,26.704 C73.548,26.656 73.4693333,26.632 73.352,26.632 L73.352,26.632 L69.544,26.632 C69.2986667,26.632 69.0813333,26.6186667 68.892,26.592 C68.7026667,26.5653333 68.532,26.516 68.38,26.444 C68.228,26.372 68.0893333,26.2733333 67.964,26.148 C67.8386667,26.0226667 67.7173333,25.8613333 67.6,25.664 C67.6053333,25.6213333 67.608,25.576 67.608,25.528 L67.608,25.528 L67.608,22.904 C67.608,22.7493333 67.5986667,22.624 67.58,22.528 C67.5613333,22.432 67.5306667,22.356 67.488,22.3 C67.4453333,22.244 67.3853333,22.2053333 67.308,22.184 C67.2306667,22.1626667 67.1333333,22.152 67.016,22.152 L67.016,22.152 L66.296,22.152 C66.184,22.152 66.108,22.1773333 66.068,22.228 C66.028,22.2786667 66.008,22.3573333 66.008,22.464 C66.008,22.5706667 66.028,22.6453333 66.068,22.688 C66.108,22.7306667 66.184,22.752 66.296,22.752 L66.296,22.752 L66.928,22.752 C66.976,22.752 67,22.7866667 67,22.856 L67,22.856 L67,25.552 C67,25.7866667 66.9253333,26.02 66.776,26.252 C66.6266667,26.484 66.4373333,26.6693333 66.208,26.808 C66.0693333,26.888 65.9893333,26.9666667 65.968,27.044 C65.9466667,27.1213333 65.9653333,27.2053333 66.024,27.296 Z" id="你的校园生活轨迹" fill="#8A8A8A"></path>
            </g>
        </g>
    </g>
</svg>